SplineFontDB: 3.2
FontName: UtoSansSundanese-Regular
FullName: Uto Sans Sundanese Regular
FamilyName: Uto Sans Sundanese
Weight: Regular
Copyright: Copyright 2022 The Noto Project Authors (https://github.com/notofonts/sundanese)
Version: 2.004; ttfautohint (v1.8.4.7-5d5b)
ItalicAngle: 0
UnderlinePosition: -125
UnderlineWidth: 50
Ascent: 800
Descent: 200
InvalidEm: 0
sfntRevision: 0x00020106
LayerCount: 2
Layer: 0 1 "+BBcEMAQ0BD0EOAQ5 +BD8EOwQwBD0A" 1
Layer: 1 1 "+BB8ENQRABDUENAQ9BDgEOQAA +BD8EOwQwBD0A" 0
XUID: [1021 59 1751208496 20590]
StyleMap: 0x0040
FSType: 0
OS2Version: 4
OS2_WeightWidthSlopeOnly: 0
OS2_UseTypoMetrics: 1
CreationTime: 1593023580
ModificationTime: 1687635281
PfmFamily: 17
TTFWeight: 400
TTFWidth: 5
LineGap: 0
VLineGap: 0
Panose: 2 11 5 2 4 5 4 2 2 4
OS2TypoAscent: 1069
OS2TypoAOffset: 0
OS2TypoDescent: -368
OS2TypoDOffset: 0
OS2TypoLinegap: 0
OS2WinAscent: 1069
OS2WinAOffset: 0
OS2WinDescent: 385
OS2WinDOffset: 0
HheadAscent: 1069
HheadAOffset: 0
HheadDescent: -368
HheadDOffset: 0
OS2SubXSize: 650
OS2SubYSize: 600
OS2SubXOff: 0
OS2SubYOff: 75
OS2SupXSize: 650
OS2SupYSize: 600
OS2SupXOff: 0
OS2SupYOff: 350
OS2StrikeYSize: 50
OS2StrikeYPos: 322
OS2CapHeight: 714
OS2XHeight: 536
OS2Vendor: 'GOOG'
OS2CodePages: 00000001.00000000
OS2UnicodeRanges: 80000003.00002000.00000000.00010000
Lookup: 1 0 0 "+BBUENAQ4BD0EOARHBD0EMARP +BD8EPgQ0BEEEQgQwBD0EPgQyBDoEMAAA lookup 0" { "+BBUENAQ4BD0EOARHBD0EMARP +BD8EPgQ0BEEEQgQwBD0EPgQyBDoEMAAA lookup 0 subtable"  } []
Lookup: 1 0 0 "+BBUENAQ4BD0EOARHBD0EMARP +BD8EPgQ0BEEEQgQwBD0EPgQyBDoEMAAA lookup 1" { "+BBUENAQ4BD0EOARHBD0EMARP +BD8EPgQ0BEEEQgQwBD0EPgQyBDoEMAAA lookup 1 subtable"  } []
Lookup: 1 0 0 "+BBUENAQ4BD0EOARHBD0EMARP +BD8EPgQ0BEEEQgQwBD0EPgQyBDoEMAAA lookup 2" { "+BBUENAQ4BD0EOARHBD0EMARP +BD8EPgQ0BEEEQgQwBD0EPgQyBDoEMAAA lookup 2 subtable"  } []

StartChar: .notdef
Encoding: 82 -1 0
Width: 600
GlyphClass: 1
Flags: W
HStem: 0 51<145 454> 663 51<145 454>
VStem: 94 51<51 663> 454 51<51 663>
LayerCount: 2
Fore
SplineSet
94 0 m 1,0,-1
 94 714 l 1,1,-1
 505 714 l 1,2,-1
 505 0 l 1,3,-1
 94 0 l 1,0,-1
145 51 m 1,4,-1
 454 51 l 1,5,-1
 454 663 l 1,6,-1
 145 663 l 1,7,-1
 145 51 l 1,4,-1
EndSplineSet
EndChar

StartChar: hyphen
Encoding: 3 45 3
Width: 322
GlyphClass: 1
Flags: W
HStem: 229 78<40 282>
VStem: 40 242<229 307>
LayerCount: 2
Fore
SplineSet
40 229 m 1,0,-1
 40 307 l 1,1,-1
 282 307 l 1,2,-1
 282 229 l 1,3,-1
 40 229 l 1,0,-1
EndSplineSet
EndChar

StartChar: uni1B80
Encoding: 5 7040 7
Width: 0
GlyphClass: 4
Flags: W
HStem: 756 58<-252.869 -179.373> 911 59<-253.46 -179.373>
VStem: -323 58<826.131 899.627> -168 59<825.54 899.627>
AnchorPoint: "+BBEENQQ3BEsEPARPBD0EPQQ+BDUA--3" -215 751 mark 0
AnchorPoint: "+BBEENQQ3BEsEPARPBD0EPQQ+BDUA--2" -220 747 mark 0
AnchorPoint: "+BBEENQQ3BEsEPARPBD0EPQQ+BDUA--0" -215 751 mark 0
LayerCount: 2
Fore
SplineSet
-216 756 m 256,0,1
 -260 756 -260 756 -291.5 787.5 c 128,-1,2
 -323 819 -323 819 -323 863 c 256,3,4
 -323 907 -323 907 -291.5 938.5 c 128,-1,5
 -260 970 -260 970 -216 970 c 256,6,7
 -172 970 -172 970 -140.5 938.5 c 128,-1,8
 -109 907 -109 907 -109 863 c 256,9,10
 -109 819 -109 819 -140.5 787.5 c 128,-1,11
 -172 756 -172 756 -216 756 c 256,0,1
-216 814 m 256,12,13
 -196 814 -196 814 -182 828.5 c 128,-1,14
 -168 843 -168 843 -168 863 c 256,15,16
 -168 883 -168 883 -182 897 c 128,-1,17
 -196 911 -196 911 -216 911 c 256,18,19
 -236 911 -236 911 -250.5 897 c 128,-1,20
 -265 883 -265 883 -265 863 c 256,21,22
 -265 843 -265 843 -250.5 828.5 c 128,-1,23
 -236 814 -236 814 -216 814 c 256,12,13
EndSplineSet
Substitution2: "+BBUENAQ4BD0EOARHBD0EMARP +BD8EPgQ0BEEEQgQwBD0EPgQyBDoEMAAA lookup 2 subtable" uni1BA7
Substitution2: "+BBUENAQ4BD0EOARHBD0EMARP +BD8EPgQ0BEEEQgQwBD0EPgQyBDoEMAAA lookup 1 subtable" uni1BA1
EndChar

StartChar: uni1B81
Encoding: 6 7041 8
Width: 0
GlyphClass: 4
Flags: W
HStem: 756 205
VStem: -369 307
AnchorPoint: "+BBEENQQ3BEsEPARPBD0EPQQ+BDUA--3" -225 751 mark 0
AnchorPoint: "+BBEENQQ3BEsEPARPBD0EPQQ+BDUA--2" -235 747 mark 0
AnchorPoint: "+BBEENQQ3BEsEPARPBD0EPQQ+BDUA--0" -225 751 mark 0
LayerCount: 2
Fore
SplineSet
-202 756 m 1,0,-1
 -283 875 l 1,1,-1
 -330 809 l 1,2,-1
 -369 837 l 1,3,-1
 -301 939 l 1,4,-1
 -258 939 l 1,5,-1
 -186 832 l 1,6,-1
 -107 961 l 1,7,-1
 -62 934 l 1,8,-1
 -166 756 l 1,9,-1
 -202 756 l 1,0,-1
EndSplineSet
EndChar

StartChar: uni1B82
Encoding: 7 7042 9
Width: 387
GlyphClass: 1
Flags: W
HStem: 0 284
VStem: 1 302
LayerCount: 2
Fore
SplineSet
101 0 m 1,0,-1
 1 284 l 1,1,-1
 68 284 l 1,2,-1
 168 0 l 1,3,-1
 101 0 l 1,0,-1
236 0 m 1,4,-1
 136 284 l 1,5,-1
 203 284 l 1,6,-1
 303 0 l 1,7,-1
 236 0 l 1,4,-1
EndSplineSet
EndChar

StartChar: uni1B83
Encoding: 8 7043 10
Width: 871
GlyphClass: 2
Flags: W
HStem: -13 82<359.984 612.322> 349 73<539 613.289> 635 79<376 647>
VStem: 79 97<258.078 548.28> 697 100<144.901 284.759>
AnchorPoint: "+BBEENQQ3BEsEPARPBD0EPQQ+BDUA--1" 537 0 basechar 0
LayerCount: 2
Fore
SplineSet
497 -13 m 0,0,1
 385 -13 385 -13 305 19.5 c 128,-1,2
 225 52 225 52 175.5 109 c 128,-1,3
 126 166 126 166 102.5 239.5 c 128,-1,4
 79 313 79 313 79 394 c 0,5,6
 79 489 79 489 111 580 c 128,-1,7
 143 671 143 671 197 736 c 1,8,-1
 303 736 l 1,9,10
 259 676 259 676 230.5 624 c 128,-1,11
 202 572 202 572 189 517.5 c 128,-1,12
 176 463 176 463 176 394 c 0,13,14
 176 301 176 301 210.5 227.5 c 128,-1,15
 245 154 245 154 316 111.5 c 128,-1,16
 387 69 387 69 497 69 c 0,17,18
 567 69 567 69 611 90 c 128,-1,19
 655 111 655 111 676 146 c 128,-1,20
 697 181 697 181 697 223 c 0,21,22
 697 263 697 263 669.5 291 c 128,-1,23
 642 319 642 319 595 334 c 128,-1,24
 548 349 548 349 488 349 c 2,25,-1
 394 349 l 1,26,-1
 417 422 l 1,27,-1
 647 635 l 1,28,-1
 351 635 l 1,29,-1
 376 714 l 1,30,-1
 794 714 l 1,31,-1
 787 652 l 1,32,-1
 539 422 l 1,33,34
 616 422 616 422 674 395 c 128,-1,35
 732 368 732 368 764.5 323 c 128,-1,36
 797 278 797 278 797 223 c 0,37,38
 797 179 797 179 782 137 c 128,-1,39
 767 95 767 95 733 61 c 128,-1,40
 699 27 699 27 641 7 c 128,-1,41
 583 -13 583 -13 497 -13 c 0,0,1
EndSplineSet
EndChar

StartChar: uni1B84
Encoding: 9 7044 11
Width: 561
GlyphClass: 2
Flags: W
HStem: 0 79<101 370> 635 79<284 408>
AnchorPoint: "+BBEENQQ3BEsEPARPBD0EPQQ+BDUA--1" 302 0 basechar 0
LayerCount: 2
Fore
SplineSet
-22 0 m 1,0,-1
 214 714 l 1,1,-1
 434 714 l 1,2,-1
 408 635 l 1,3,-1
 284 635 l 1,4,-1
 101 79 l 1,5,-1
 370 79 l 1,6,-1
 413 206 l 1,7,-1
 507 206 l 1,8,-1
 439 0 l 1,9,-1
 -22 0 l 1,0,-1
EndSplineSet
EndChar

StartChar: uni1B85
Encoding: 10 7045 12
Width: 765
GlyphClass: 2
Flags: W
HStem: 0 79<217 518> 272 79<498.255 735> 635 79<98 301>
VStem: 398 92<200.456 263.696>
AnchorPoint: "+BBEENQQ3BEsEPARPBD0EPQQ+BDUA--1" 488 0 basechar 0
LayerCount: 2
Fore
SplineSet
92 0 m 1,0,-1
 301 635 l 1,1,-1
 72 635 l 1,2,-1
 98 714 l 1,3,-1
 427 714 l 1,4,-1
 217 79 l 1,5,-1
 518 79 l 1,6,-1
 457 133 l 2,7,8
 436 151 436 151 417 178.5 c 128,-1,9
 398 206 398 206 398 239 c 0,10,11
 398 286 398 286 429.5 318.5 c 128,-1,12
 461 351 461 351 534 351 c 2,13,-1
 761 351 l 1,14,-1
 735 272 l 1,15,-1
 535 272 l 2,16,17
 506 272 506 272 498 259.5 c 128,-1,18
 490 247 490 247 490 236 c 0,19,20
 490 222 490 222 508.5 203.5 c 128,-1,21
 527 185 527 185 540 173 c 2,22,-1
 673 54 l 1,23,-1
 655 0 l 1,24,-1
 92 0 l 1,0,-1
EndSplineSet
EndChar

StartChar: uni1B86
Encoding: 11 7046 13
Width: 911
GlyphClass: 2
Flags: W
HStem: -13 82<360.441 638.007> 349 73<579 653.289> 480 58<688.977 785.581> 635 79<416 687>
VStem: 79 97<258.078 545.701> 737 100<151.776 284.759>
AnchorPoint: "+BBEENQQ3BEsEPARPBD0EPQQ+BDUA--1" 537 0 basechar 0
LayerCount: 2
Fore
SplineSet
506 -13 m 0,0,1
 388 -13 388 -13 306.5 19.5 c 128,-1,2
 225 52 225 52 175 109 c 128,-1,3
 125 166 125 166 102 239.5 c 128,-1,4
 79 313 79 313 79 394 c 0,5,6
 79 489 79 489 111 579.5 c 128,-1,7
 143 670 143 670 197 736 c 1,8,-1
 303 736 l 1,9,10
 258 675 258 675 230 622.5 c 128,-1,11
 202 570 202 570 189 515.5 c 128,-1,12
 176 461 176 461 176 394 c 0,13,14
 176 301 176 301 209.5 227.5 c 128,-1,15
 243 154 243 154 315.5 111.5 c 128,-1,16
 388 69 388 69 506 69 c 0,17,18
 621 69 621 69 679 114 c 128,-1,19
 737 159 737 159 737 223 c 0,20,21
 737 263 737 263 709.5 291 c 128,-1,22
 682 319 682 319 635 334 c 128,-1,23
 588 349 588 349 528 349 c 2,24,-1
 434 349 l 1,25,-1
 457 422 l 1,26,-1
 687 635 l 1,27,-1
 391 635 l 1,28,-1
 416 714 l 1,29,-1
 834 714 l 1,30,-1
 827 652 l 1,31,-1
 688 523 l 1,32,33
 710 529 710 529 733 533.5 c 128,-1,34
 756 538 756 538 778 538 c 0,35,36
 818 538 818 538 841.5 526.5 c 128,-1,37
 865 515 865 515 875.5 498.5 c 128,-1,38
 886 482 886 482 886 468 c 0,39,40
 886 449 886 449 874 438 c 128,-1,41
 862 427 862 427 842 427 c 0,42,43
 826 427 826 427 814.5 435 c 128,-1,44
 803 443 803 443 791.5 453.5 c 128,-1,45
 780 464 780 464 763 472 c 128,-1,46
 746 480 746 480 718 480 c 0,47,48
 672 480 672 480 639.5 464 c 128,-1,49
 607 448 607 448 579 422 c 1,50,51
 656 422 656 422 714 395 c 128,-1,52
 772 368 772 368 804.5 323 c 128,-1,53
 837 278 837 278 837 223 c 0,54,55
 837 179 837 179 819.5 137 c 128,-1,56
 802 95 802 95 763.5 61 c 128,-1,57
 725 27 725 27 661.5 7 c 128,-1,58
 598 -13 598 -13 506 -13 c 0,0,1
EndSplineSet
EndChar

StartChar: uni1B87
Encoding: 12 7047 14
Width: 804
GlyphClass: 2
Flags: W
HStem: 0 79<217 403> 280 78<569.765 655.679> 635 79<202 304>
VStem: 662 100<171.844 272.865>
AnchorPoint: "+BBEENQQ3BEsEPARPBD0EPQQ+BDUA--1" 517 0 basechar 0
LayerCount: 2
Fore
SplineSet
92 0 m 1,0,-1
 218 376 l 1,1,-1
 82 714 l 1,2,-1
 428 714 l 1,3,-1
 217 79 l 1,4,-1
 403 79 l 1,5,-1
 458 233 l 2,6,7
 469 264 469 264 488 292.5 c 128,-1,8
 507 321 507 321 541.5 339.5 c 128,-1,9
 576 358 576 358 632 358 c 0,10,11
 664 358 664 358 694 346.5 c 128,-1,12
 724 335 724 335 743 312.5 c 128,-1,13
 762 290 762 290 762 256 c 0,14,15
 762 236 762 236 755 216 c 2,16,-1
 683 0 l 1,17,-1
 590 0 l 1,18,-1
 649 183 l 2,19,20
 654 196 654 196 658 212 c 128,-1,21
 662 228 662 228 662 242 c 0,22,23
 662 258 662 258 653 269 c 128,-1,24
 644 280 644 280 618 280 c 0,25,26
 593 280 593 280 579 268 c 128,-1,27
 565 256 565 256 558 240 c 128,-1,28
 551 224 551 224 547 212 c 2,29,-1
 473 0 l 1,30,-1
 92 0 l 1,0,-1
257 496 m 1,31,-1
 304 635 l 1,32,-1
 202 635 l 1,33,-1
 257 496 l 1,31,-1
EndSplineSet
EndChar

StartChar: uni1B88
Encoding: 13 7048 15
Width: 795
GlyphClass: 2
Flags: W
HStem: -13 82<298.616 507.424> 290 88<468.336 646> 635 79<498.548 714>
VStem: 39 97<264.581 452> 291 100<433.811 562.713> 646 102<210.013 290>
AnchorPoint: "+BBEENQQ3BEsEPARPBD0EPQQ+BDUA--1" 478 0 basechar 0
LayerCount: 2
Fore
SplineSet
410 -13 m 0,0,1
 307 -13 307 -13 235.5 22.5 c 128,-1,2
 164 58 164 58 121 117.5 c 128,-1,3
 78 177 78 177 58.5 251.5 c 128,-1,4
 39 326 39 326 39 404 c 2,5,-1
 39 452 l 1,6,-1
 136 452 l 1,7,-1
 136 421 l 2,8,9
 136 316 136 316 167 236.5 c 128,-1,10
 198 157 198 157 259.5 113 c 128,-1,11
 321 69 321 69 410 69 c 0,12,13
 463 69 463 69 506.5 90 c 128,-1,14
 550 111 550 111 581 145 c 128,-1,15
 612 179 612 179 629 217.5 c 128,-1,16
 646 256 646 256 646 290 c 1,17,18
 464 290 464 290 377.5 340.5 c 128,-1,19
 291 391 291 391 291 494 c 0,20,21
 291 564 291 564 327 607.5 c 128,-1,22
 363 651 363 651 422 674 c 128,-1,23
 481 697 481 697 552.5 705.5 c 128,-1,24
 624 714 624 714 695 714 c 2,25,-1
 740 714 l 1,26,-1
 714 635 l 1,27,-1
 689 635 l 2,28,29
 635 635 635 635 582 629.5 c 128,-1,30
 529 624 529 624 486 609.5 c 128,-1,31
 443 595 443 595 417 568 c 128,-1,32
 391 541 391 541 391 497 c 0,33,34
 391 456 391 456 416 429.5 c 128,-1,35
 441 403 441 403 504 390.5 c 128,-1,36
 567 378 567 378 680 378 c 2,37,-1
 748 378 l 1,38,-1
 748 344 l 2,39,40
 748 274 748 274 726.5 210 c 128,-1,41
 705 146 705 146 663 95.5 c 128,-1,42
 621 45 621 45 557.5 16 c 128,-1,43
 494 -13 494 -13 410 -13 c 0,0,1
EndSplineSet
EndChar

StartChar: uni1B89
Encoding: 14 7049 16
Width: 871
GlyphClass: 2
Flags: W
HStem: -13 82<359.984 619.691> 308 73<567 642.23> 483 79<392 615>
VStem: 79 97<258.078 545.881> 697 100<131.351 260.547>
AnchorPoint: "+BBEENQQ3BEsEPARPBD0EPQQ+BDUA--1" 537 0 basechar 0
LayerCount: 2
Fore
SplineSet
568 606 m 1,0,-1
 419 758 l 1,1,-1
 512 758 l 1,2,-1
 601 669 l 1,3,-1
 690 758 l 1,4,-1
 783 758 l 1,5,-1
 634 606 l 1,6,-1
 568 606 l 1,0,-1
497 -13 m 0,7,8
 385 -13 385 -13 305 19.5 c 128,-1,9
 225 52 225 52 175.5 109 c 128,-1,10
 126 166 126 166 102.5 239.5 c 128,-1,11
 79 313 79 313 79 394 c 0,12,13
 79 488 79 488 111 579.5 c 128,-1,14
 143 671 143 671 197 736 c 1,15,-1
 303 736 l 1,16,17
 256 673 256 673 228 619 c 128,-1,18
 200 565 200 565 188 511.5 c 128,-1,19
 176 458 176 458 176 394 c 0,20,21
 176 301 176 301 210.5 227.5 c 128,-1,22
 245 154 245 154 316 111.5 c 128,-1,23
 387 69 387 69 497 69 c 0,24,25
 592 69 592 69 644.5 104 c 128,-1,26
 697 139 697 139 697 193 c 0,27,28
 697 253 697 253 653 280.5 c 128,-1,29
 609 308 609 308 520 308 c 2,30,-1
 417 308 l 1,31,-1
 445 395 l 1,32,-1
 615 483 l 1,33,-1
 367 483 l 1,34,-1
 392 562 l 1,35,-1
 778 562 l 1,36,-1
 769 486 l 1,37,-1
 567 381 l 1,38,39
 682 381 682 381 739.5 328.5 c 128,-1,40
 797 276 797 276 797 193 c 0,41,42
 797 155 797 155 781.5 118.5 c 128,-1,43
 766 82 766 82 731 52 c 128,-1,44
 696 22 696 22 638.5 4.5 c 128,-1,45
 581 -13 581 -13 497 -13 c 0,7,8
EndSplineSet
EndChar

StartChar: uni1B8A
Encoding: 15 7050 17
Width: 793
GlyphClass: 2
Flags: W
HStem: 0 21G<90 195.667 494 599.667> 635 79<101 304 505 708>
AnchorPoint: "+BBEENQQ3BEsEPARPBD0EPQQ+BDUA--1" 390 0 basechar 0
AnchorPoint: "+BBEENQQ3BEsEPARPBD0EPQQ+BDUA--0" 398 781 basechar 0
LayerCount: 2
Fore
SplineSet
494 0 m 1,0,-1
 708 635 l 1,1,-1
 479 635 l 1,2,-1
 505 714 l 1,3,-1
 831 714 l 1,4,-1
 593 0 l 1,5,-1
 494 0 l 1,0,-1
90 0 m 1,6,-1
 304 635 l 1,7,-1
 75 635 l 1,8,-1
 101 714 l 1,9,-1
 427 714 l 1,10,-1
 189 0 l 1,11,-1
 90 0 l 1,6,-1
EndSplineSet
EndChar

StartChar: uni1B8B
Encoding: 16 7051 18
Width: 800
GlyphClass: 2
Flags: W
HStem: 0 21G<-23 82.6142 240 345.583 502 607.555> 635 79<286 450 548 712>
AnchorPoint: "+BBEENQQ3BEsEPARPBD0EPQQ+BDUA--1" 371 0 basechar 0
AnchorPoint: "+BBEENQQ3BEsEPARPBD0EPQQ+BDUA--0" 427 781 basechar 0
LayerCount: 2
Fore
SplineSet
-23 0 m 1,0,-1
 213 714 l 1,1,-1
 835 714 l 1,2,-1
 601 0 l 1,3,-1
 502 0 l 1,4,-1
 712 635 l 1,5,-1
 548 635 l 1,6,-1
 339 0 l 1,7,-1
 240 0 l 1,8,-1
 450 635 l 1,9,-1
 286 635 l 1,10,-1
 76 0 l 1,11,-1
 -23 0 l 1,0,-1
EndSplineSet
EndChar

StartChar: uni1B8C
Encoding: 17 7052 19
Width: 801
GlyphClass: 2
Flags: W
HStem: 0 79<218 561> 272 79<471 625> 635 79<100 302>
AnchorPoint: "+BBEENQQ3BEsEPARPBD0EPQQ+BDUA--1" 371 0 basechar 0
AnchorPoint: "+BBEENQQ3BEsEPARPBD0EPQQ+BDUA--0" 400 781 basechar 0
LayerCount: 2
Fore
SplineSet
93 0 m 1,0,-1
 302 635 l 1,1,-1
 74 635 l 1,2,-1
 100 714 l 1,3,-1
 428 714 l 1,4,-1
 218 79 l 1,5,-1
 561 79 l 1,6,-1
 625 272 l 1,7,-1
 445 272 l 1,8,-1
 471 351 l 1,9,-1
 744 351 l 1,10,-1
 629 0 l 1,11,-1
 93 0 l 1,0,-1
EndSplineSet
EndChar

StartChar: uni1B8D
Encoding: 18 7053 20
Width: 728
GlyphClass: 2
Flags: W
HStem: 0 79<218 557> 635 79<100 302>
AnchorPoint: "+BBEENQQ3BEsEPARPBD0EPQQ+BDUA--1" 371 0 basechar 0
AnchorPoint: "+BBEENQQ3BEsEPARPBD0EPQQ+BDUA--0" 355 781 basechar 0
LayerCount: 2
Fore
SplineSet
93 0 m 1,0,-1
 302 635 l 1,1,-1
 74 635 l 1,2,-1
 100 714 l 1,3,-1
 428 714 l 1,4,-1
 218 79 l 1,5,-1
 557 79 l 1,6,-1
 469 351 l 1,7,-1
 564 351 l 1,8,-1
 678 0 l 1,9,-1
 93 0 l 1,0,-1
EndSplineSet
EndChar

StartChar: uni1B8E
Encoding: 19 7054 21
Width: 750
GlyphClass: 2
Flags: W
HStem: -14 90<352.187 466.994> -13 72<59.935 141.857> 158 76<60.8304 160.495> 635 79<121 326>
VStem: -30 79<70.4775 147.351>
AnchorPoint: "+BBEENQQ3BEsEPARPBD0EPQQ+BDUA--1" 322 0 basechar 0
AnchorPoint: "+BBEENQQ3BEsEPARPBD0EPQQ+BDUA--0" 390 781 basechar 0
LayerCount: 2
Fore
SplineSet
421 -14 m 0,0,1
 364 -14 364 -14 317 12 c 128,-1,2
 270 38 270 38 234 68 c 1,3,4
 214 32 214 32 183 9.5 c 128,-1,5
 152 -13 152 -13 100 -13 c 0,6,7
 68 -13 68 -13 38 -1 c 128,-1,8
 8 11 8 11 -11 37 c 128,-1,9
 -30 63 -30 63 -30 105 c 0,10,11
 -30 149 -30 149 -11 177.5 c 128,-1,12
 8 206 8 206 39 220 c 128,-1,13
 70 234 70 234 104 234 c 0,14,15
 127 234 127 234 150.5 228 c 128,-1,16
 174 222 174 222 189 213 c 1,17,-1
 326 635 l 1,18,-1
 95 635 l 1,19,-1
 121 714 l 1,20,-1
 452 714 l 1,21,-1
 270 161 l 1,22,23
 313 122 313 122 350 99 c 128,-1,24
 387 76 387 76 413 76 c 0,25,26
 438 76 438 76 457.5 89.5 c 128,-1,27
 477 103 477 103 496.5 140.5 c 128,-1,28
 516 178 516 178 539 249 c 2,29,-1
 693 714 l 1,30,-1
 791 714 l 1,31,-1
 616 187 l 2,32,33
 594 119 594 119 570 74.5 c 128,-1,34
 546 30 546 30 511 8 c 128,-1,35
 476 -14 476 -14 421 -14 c 0,0,1
101 59 m 0,36,37
 122 59 122 59 135 72.5 c 128,-1,38
 148 86 148 86 155.5 103.5 c 128,-1,39
 163 121 163 121 166 131 c 1,40,41
 153 144 153 144 137.5 151 c 128,-1,42
 122 158 122 158 102 158 c 0,43,44
 80 158 80 158 64.5 145.5 c 128,-1,45
 49 133 49 133 49 110 c 0,46,47
 49 88 49 88 62.5 73.5 c 128,-1,48
 76 59 76 59 101 59 c 0,36,37
EndSplineSet
EndChar

StartChar: uni1B8F
Encoding: 20 7055 22
Width: 815
GlyphClass: 2
Flags: W
HStem: 0 79<101 234> 635 79<286 411>
AnchorPoint: "+BBEENQQ3BEsEPARPBD0EPQQ+BDUA--1" 634 0 basechar 0
AnchorPoint: "+BBEENQQ3BEsEPARPBD0EPQQ+BDUA--0" 390 781 basechar 0
LayerCount: 2
Fore
SplineSet
-23 0 m 1,0,-1
 212 714 l 1,1,-1
 437 714 l 1,2,-1
 411 635 l 1,3,-1
 286 635 l 1,4,-1
 101 79 l 1,5,-1
 234 79 l 1,6,-1
 352 414 l 1,7,-1
 442 414 l 1,8,-1
 587 0 l 1,9,-1
 493 0 l 1,10,-1
 397 284 l 1,11,-1
 304 0 l 1,12,-1
 -23 0 l 1,0,-1
672 0 m 1,13,-1
 525 414 l 1,14,-1
 620 414 l 1,15,-1
 765 0 l 1,16,-1
 672 0 l 1,13,-1
EndSplineSet
EndChar

StartChar: uni1B90
Encoding: 21 7056 23
Width: 829
GlyphClass: 2
Flags: W
HStem: 0 79<217 403> 249 78<558.765 644.679> 635 79<95 302>
VStem: 651 100<140.883 241.617>
AnchorPoint: "+BBEENQQ3BEsEPARPBD0EPQQ+BDUA--1" 454 0 basechar 0
AnchorPoint: "+BBEENQQ3BEsEPARPBD0EPQQ+BDUA--0" 390 781 basechar 0
LayerCount: 2
Fore
SplineSet
93 0 m 1,0,-1
 302 635 l 1,1,-1
 69 635 l 1,2,-1
 95 714 l 1,3,-1
 428 714 l 1,4,-1
 217 79 l 1,5,-1
 403 79 l 1,6,-1
 447 202 l 2,7,8
 458 233 458 233 477 261.5 c 128,-1,9
 496 290 496 290 530.5 308.5 c 128,-1,10
 565 327 565 327 621 327 c 0,11,12
 653 327 653 327 683 315.5 c 128,-1,13
 713 304 713 304 732 281 c 128,-1,14
 751 258 751 258 751 225 c 0,15,16
 751 205 751 205 744 185 c 2,17,-1
 684 0 l 1,18,-1
 590 0 l 1,19,-1
 638 152 l 2,20,21
 642 165 642 165 646.5 181 c 128,-1,22
 651 197 651 197 651 211 c 0,23,24
 651 227 651 227 642 238 c 128,-1,25
 633 249 633 249 607 249 c 0,26,27
 582 249 582 249 568 237 c 128,-1,28
 554 225 554 225 547 209 c 128,-1,29
 540 193 540 193 536 181 c 2,30,-1
 473 0 l 1,31,-1
 93 0 l 1,0,-1
EndSplineSet
EndChar

StartChar: uni1B91
Encoding: 22 7057 24
Width: 1077
GlyphClass: 2
Flags: W
HStem: 0 79<207 404> 635 79<102 294 693 991>
AnchorPoint: "+BBEENQQ3BEsEPARPBD0EPQQ+BDUA--1" 634 0 basechar 0
AnchorPoint: "+BBEENQQ3BEsEPARPBD0EPQQ+BDUA--0" 525 781 basechar 0
LayerCount: 2
Fore
SplineSet
84 0 m 1,0,-1
 294 635 l 1,1,-1
 76 635 l 1,2,-1
 102 714 l 1,3,-1
 417 714 l 1,4,-1
 207 79 l 1,5,-1
 404 79 l 1,6,-1
 536 474 l 1,7,-1
 579 474 l 1,8,-1
 822 135 l 1,9,-1
 991 635 l 1,10,-1
 693 635 l 1,11,-1
 677 589 l 1,12,-1
 581 589 l 1,13,-1
 623 714 l 1,14,-1
 1114 714 l 1,15,-1
 876 0 l 1,16,-1
 814 0 l 1,17,-1
 580 323 l 1,18,-1
 474 0 l 1,19,-1
 84 0 l 1,0,-1
EndSplineSet
EndChar

StartChar: uni1B92
Encoding: 23 7058 25
Width: 861
GlyphClass: 2
Flags: W
HStem: 0 79<156 323> 457 79<62 187 569 727>
AnchorPoint: "+BBEENQQ3BEsEPARPBD0EPQQ+BDUA--1" 429 0 basechar 0
AnchorPoint: "+BBEENQQ3BEsEPARPBD0EPQQ+BDUA--0" 450 781 basechar 0
LayerCount: 2
Fore
SplineSet
33 0 m 1,0,-1
 187 457 l 1,1,-1
 36 457 l 1,2,-1
 62 536 l 1,3,-1
 310 536 l 1,4,-1
 156 79 l 1,5,-1
 323 79 l 1,6,-1
 530 714 l 1,7,-1
 627 714 l 1,8,-1
 569 536 l 1,9,-1
 852 536 l 1,10,-1
 676 0 l 1,11,-1
 578 0 l 1,12,-1
 727 457 l 1,13,-1
 543 457 l 1,14,-1
 393 0 l 1,15,-1
 33 0 l 1,0,-1
EndSplineSet
EndChar

StartChar: uni1B93
Encoding: 24 7059 26
Width: 712
GlyphClass: 2
Flags: W
HStem: 0 79<101 308> 635 79<284 487>
AnchorPoint: "+BBEENQQ3BEsEPARPBD0EPQQ+BDUA--1" 341 0 basechar 0
AnchorPoint: "+BBEENQQ3BEsEPARPBD0EPQQ+BDUA--0" 360 781 basechar 0
LayerCount: 2
Fore
SplineSet
-22 0 m 1,0,-1
 214 714 l 1,1,-1
 513 714 l 1,2,-1
 487 635 l 1,3,-1
 284 635 l 1,4,-1
 101 79 l 1,5,-1
 308 79 l 1,6,-1
 426 414 l 1,7,-1
 518 414 l 1,8,-1
 662 0 l 1,9,-1
 567 0 l 1,10,-1
 472 284 l 1,11,-1
 379 0 l 1,12,-1
 -22 0 l 1,0,-1
EndSplineSet
EndChar

StartChar: uni1B94
Encoding: 25 7060 27
Width: 721
GlyphClass: 2
Flags: W
HStem: 0 79<288 655> 635 79<102 372>
AnchorPoint: "+BBEENQQ3BEsEPARPBD0EPQQ+BDUA--1" 429 0 basechar 0
AnchorPoint: "+BBEENQQ3BEsEPARPBD0EPQQ+BDUA--0" 390 781 basechar 0
LayerCount: 2
Fore
SplineSet
163 0 m 1,0,-1
 372 635 l 1,1,-1
 76 635 l 1,2,-1
 102 714 l 1,3,-1
 498 714 l 1,4,-1
 288 79 l 1,5,-1
 681 79 l 1,6,-1
 655 0 l 1,7,-1
 163 0 l 1,0,-1
EndSplineSet
EndChar

StartChar: uni1B95
Encoding: 26 7061 28
Width: 793
GlyphClass: 2
Flags: W
HStem: 0 79<218 520> 635 79<101 302 502 703>
AnchorPoint: "+BBEENQQ3BEsEPARPBD0EPQQ+BDUA--1" 371 0 basechar 0
AnchorPoint: "+BBEENQQ3BEsEPARPBD0EPQQ+BDUA--0" 400 781 basechar 0
LayerCount: 2
Fore
SplineSet
93 0 m 1,0,-1
 302 635 l 1,1,-1
 75 635 l 1,2,-1
 101 714 l 1,3,-1
 428 714 l 1,4,-1
 218 79 l 1,5,-1
 520 79 l 1,6,-1
 703 635 l 1,7,-1
 476 635 l 1,8,-1
 502 714 l 1,9,-1
 829 714 l 1,10,-1
 593 0 l 1,11,-1
 93 0 l 1,0,-1
EndSplineSet
EndChar

StartChar: uni1B96
Encoding: 27 7062 29
Width: 793
GlyphClass: 2
Flags: W
HStem: 0 79<218 520> 635 79<101 302>
AnchorPoint: "+BBEENQQ3BEsEPARPBD0EPQQ+BDUA--1" 371 0 basechar 0
AnchorPoint: "+BBEENQQ3BEsEPARPBD0EPQQ+BDUA--0" 400 781 basechar 0
LayerCount: 2
Fore
SplineSet
93 0 m 1,0,-1
 302 635 l 1,1,-1
 75 635 l 1,2,-1
 101 714 l 1,3,-1
 428 714 l 1,4,-1
 218 79 l 1,5,-1
 520 79 l 1,6,-1
 732 714 l 1,7,-1
 829 714 l 1,8,-1
 593 0 l 1,9,-1
 93 0 l 1,0,-1
EndSplineSet
EndChar

StartChar: uni1B97
Encoding: 28 7063 30
Width: 676
GlyphClass: 2
Flags: W
HStem: 0 79<100 403>
AnchorPoint: "+BBEENQQ3BEsEPARPBD0EPQQ+BDUA--1" 244 0 basechar 0
AnchorPoint: "+BBEENQQ3BEsEPARPBD0EPQQ+BDUA--0" 345 781 basechar 0
LayerCount: 2
Fore
SplineSet
-22 0 m 1,0,-1
 213 714 l 1,1,-1
 310 714 l 1,2,-1
 100 79 l 1,3,-1
 403 79 l 1,4,-1
 615 714 l 1,5,-1
 712 714 l 1,6,-1
 476 0 l 1,7,-1
 -22 0 l 1,0,-1
EndSplineSet
EndChar

StartChar: uni1B98
Encoding: 29 7064 31
Width: 970
GlyphClass: 2
Flags: W
HStem: 0 79<101 298> 635 79<284 377 587 885>
AnchorPoint: "+BBEENQQ3BEsEPARPBD0EPQQ+BDUA--1" 537 0 basechar 0
AnchorPoint: "+BBEENQQ3BEsEPARPBD0EPQQ+BDUA--0" 480 781 basechar 0
LayerCount: 2
Fore
SplineSet
-22 0 m 1,0,-1
 214 714 l 1,1,-1
 402 714 l 1,2,-1
 377 635 l 1,3,-1
 284 635 l 1,4,-1
 101 79 l 1,5,-1
 298 79 l 1,6,-1
 430 474 l 1,7,-1
 473 474 l 1,8,-1
 716 135 l 1,9,-1
 885 635 l 1,10,-1
 587 635 l 1,11,-1
 571 589 l 1,12,-1
 475 589 l 1,13,-1
 517 714 l 1,14,-1
 1008 714 l 1,15,-1
 770 0 l 1,16,-1
 708 0 l 1,17,-1
 474 323 l 1,18,-1
 368 0 l 1,19,-1
 -22 0 l 1,0,-1
EndSplineSet
EndChar

StartChar: uni1B99
Encoding: 30 7065 32
Width: 691
GlyphClass: 2
Flags: W
HStem: 0 79<197 419> 334 79<71 183> 635 79<101 602>
AnchorPoint: "+BBEENQQ3BEsEPARPBD0EPQQ+BDUA--1" 292 0 basechar 0
AnchorPoint: "+BBEENQQ3BEsEPARPBD0EPQQ+BDUA--0" 370 781 basechar 0
LayerCount: 2
Fore
SplineSet
72 0 m 1,0,-1
 183 334 l 1,1,-1
 45 334 l 1,2,-1
 71 413 l 1,3,-1
 309 413 l 1,4,-1
 197 79 l 1,5,-1
 419 79 l 1,6,-1
 602 635 l 1,7,-1
 75 635 l 1,8,-1
 101 714 l 1,9,-1
 727 714 l 1,10,-1
 492 0 l 1,11,-1
 72 0 l 1,0,-1
EndSplineSet
EndChar

StartChar: uni1B9A
Encoding: 31 7066 33
Width: 869
GlyphClass: 2
Flags: W
HStem: 0 79<156 323> 457 79<62 187>
AnchorPoint: "+BBEENQQ3BEsEPARPBD0EPQQ+BDUA--1" 454 0 basechar 0
AnchorPoint: "+BBEENQQ3BEsEPARPBD0EPQQ+BDUA--0" 437 781 basechar 0
LayerCount: 2
Fore
SplineSet
33 0 m 1,0,-1
 187 457 l 1,1,-1
 36 457 l 1,2,-1
 62 536 l 1,3,-1
 310 536 l 1,4,-1
 156 79 l 1,5,-1
 323 79 l 1,6,-1
 530 714 l 1,7,-1
 627 714 l 1,8,-1
 533 427 l 1,9,-1
 631 136 l 1,10,-1
 763 536 l 1,11,-1
 860 536 l 1,12,-1
 684 0 l 1,13,-1
 586 0 l 1,14,-1
 487 286 l 1,15,-1
 393 0 l 1,16,-1
 33 0 l 1,0,-1
EndSplineSet
EndChar

StartChar: uni1B9B
Encoding: 32 7067 34
Width: 535
GlyphClass: 2
Flags: W
HStem: 0 21G<227 332.56> 250 79<100 310 434 512> 474 79<91 384> 635 79<100 535>
AnchorPoint: "+BBEENQQ3BEsEPARPBD0EPQQ+BDUA--1" 244 0 basechar 0
AnchorPoint: "+BBEENQQ3BEsEPARPBD0EPQQ+BDUA--0" 310 781 basechar 0
LayerCount: 2
Fore
SplineSet
74 635 m 1,0,-1
 100 714 l 1,1,-1
 561 714 l 1,2,-1
 535 635 l 1,3,-1
 74 635 l 1,0,-1
227 0 m 1,4,-1
 310 250 l 1,5,-1
 74 250 l 1,6,-1
 100 329 l 1,7,-1
 336 329 l 1,8,-1
 384 474 l 1,9,-1
 65 474 l 1,10,-1
 91 553 l 1,11,-1
 508 553 l 1,12,-1
 434 329 l 1,13,-1
 538 329 l 1,14,-1
 512 250 l 1,15,-1
 408 250 l 1,16,-1
 326 0 l 1,17,-1
 227 0 l 1,4,-1
EndSplineSet
EndChar

StartChar: uni1B9C
Encoding: 33 7068 35
Width: 788
GlyphClass: 2
Flags: W
HStem: 0 79<318 516> 635 79<287 405>
AnchorPoint: "+BBEENQQ3BEsEPARPBD0EPQQ+BDUA--1" 371 0 basechar 0
AnchorPoint: "+BBEENQQ3BEsEPARPBD0EPQQ+BDUA--0" 422 781 basechar 0
LayerCount: 2
Fore
SplineSet
-20 0 m 1,0,-1
 214 714 l 1,1,-1
 528 714 l 1,2,-1
 318 79 l 1,3,-1
 516 79 l 1,4,-1
 725 714 l 1,5,-1
 824 714 l 1,6,-1
 589 0 l 1,7,-1
 194 0 l 1,8,-1
 405 635 l 1,9,-1
 287 635 l 1,10,-1
 78 0 l 1,11,-1
 -20 0 l 1,0,-1
EndSplineSet
EndChar

StartChar: uni1B9D
Encoding: 34 7069 36
Width: 684
GlyphClass: 2
Flags: W
HStem: 0 79<101 487> 272 79<371 551> 635 79<284 487>
AnchorPoint: "+BBEENQQ3BEsEPARPBD0EPQQ+BDUA--1" 341 0 basechar 0
AnchorPoint: "+BBEENQQ3BEsEPARPBD0EPQQ+BDUA--0" 358 781 basechar 0
LayerCount: 2
Fore
SplineSet
-22 0 m 1,0,-1
 214 714 l 1,1,-1
 513 714 l 1,2,-1
 487 635 l 1,3,-1
 284 635 l 1,4,-1
 101 79 l 1,5,-1
 487 79 l 1,6,-1
 551 272 l 1,7,-1
 345 272 l 1,8,-1
 371 351 l 1,9,-1
 670 351 l 1,10,-1
 555 0 l 1,11,-1
 -22 0 l 1,0,-1
EndSplineSet
EndChar

StartChar: uni1B9E
Encoding: 35 7070 37
Width: 797
GlyphClass: 2
Flags: W
HStem: 0 21G<92 195.667 496 599.667> 318 79<101 199 321 412 505 603 725 816> 635 79<101 306 505 710>
AnchorPoint: "+BBEENQQ3BEsEPARPBD0EPQQ+BDUA--1" 371 0 basechar 0
AnchorPoint: "+BBEENQQ3BEsEPARPBD0EPQQ+BDUA--0" 422 781 basechar 0
LayerCount: 2
Fore
SplineSet
496 0 m 1,0,-1
 603 318 l 1,1,-1
 479 318 l 1,2,-1
 505 397 l 1,3,-1
 629 397 l 1,4,-1
 710 635 l 1,5,-1
 479 635 l 1,6,-1
 505 714 l 1,7,-1
 831 714 l 1,8,-1
 725 397 l 1,9,-1
 842 397 l 1,10,-1
 816 318 l 1,11,-1
 699 318 l 1,12,-1
 593 0 l 1,13,-1
 496 0 l 1,0,-1
92 0 m 1,14,-1
 199 318 l 1,15,-1
 75 318 l 1,16,-1
 101 397 l 1,17,-1
 225 397 l 1,18,-1
 306 635 l 1,19,-1
 75 635 l 1,20,-1
 101 714 l 1,21,-1
 427 714 l 1,22,-1
 321 397 l 1,23,-1
 438 397 l 1,24,-1
 412 318 l 1,25,-1
 295 318 l 1,26,-1
 189 0 l 1,27,-1
 92 0 l 1,14,-1
EndSplineSet
EndChar

StartChar: uni1B9F
Encoding: 36 7071 38
Width: 797
GlyphClass: 2
Flags: W
HStem: 0 21G<90 195.667 494 599.667> 318 79<101 197 321 601> 635 79<101 304 400 708>
AnchorPoint: "+BBEENQQ3BEsEPARPBD0EPQQ+BDUA--1" 371 0 basechar 0
AnchorPoint: "+BBEENQQ3BEsEPARPBD0EPQQ+BDUA--0" 422 781 basechar 0
LayerCount: 2
Fore
SplineSet
90 0 m 1,0,-1
 197 318 l 1,1,-1
 75 318 l 1,2,-1
 101 397 l 1,3,-1
 223 397 l 1,4,-1
 304 635 l 1,5,-1
 75 635 l 1,6,-1
 101 714 l 1,7,-1
 831 714 l 1,8,-1
 593 0 l 1,9,-1
 494 0 l 1,10,-1
 601 318 l 1,11,-1
 295 318 l 1,12,-1
 189 0 l 1,13,-1
 90 0 l 1,0,-1
321 397 m 1,14,-1
 627 397 l 1,15,-1
 708 635 l 1,16,-1
 400 635 l 1,17,-1
 321 397 l 1,14,-1
EndSplineSet
EndChar

StartChar: uni1BA0
Encoding: 37 7072 39
Width: 770
GlyphClass: 2
Flags: W
HStem: 0 79<178 276> 333 79<42 167> 635 79<554 682>
AnchorPoint: "+BBEENQQ3BEsEPARPBD0EPQQ+BDUA--1" 371 0 basechar 0
AnchorPoint: "+BBEENQQ3BEsEPARPBD0EPQQ+BDUA--0" 430 781 basechar 0
LayerCount: 2
Fore
SplineSet
55 0 m 1,0,-1
 167 333 l 1,1,-1
 16 333 l 1,2,-1
 42 412 l 1,3,-1
 290 412 l 1,4,-1
 178 79 l 1,5,-1
 276 79 l 1,6,-1
 483 714 l 1,7,-1
 806 714 l 1,8,-1
 572 0 l 1,9,-1
 474 0 l 1,10,-1
 682 635 l 1,11,-1
 554 635 l 1,12,-1
 346 0 l 1,13,-1
 55 0 l 1,0,-1
EndSplineSet
EndChar

StartChar: uni1BA1
Encoding: 38 7073 40
Width: 212
GlyphClass: 1
Flags: W
HStem: -241 60<-497 -159> 228 56<47 102>
LayerCount: 2
Fore
SplineSet
-578 -241 m 1,0,-1
 -542 -129 l 1,1,-1
 -480 -129 l 1,2,-1
 -497 -181 l 1,3,-1
 -159 -181 l 1,4,-1
 -6 284 l 1,5,-1
 182 284 l 1,6,-1
 133 133 l 1,7,-1
 71 133 l 1,8,-1
 102 228 l 1,9,-1
 47 228 l 1,10,-1
 -108 -241 l 1,11,-1
 -578 -241 l 1,0,-1
EndSplineSet
Substitution2: "+BBUENAQ4BD0EOARHBD0EMARP +BD8EPgQ0BEEEQgQwBD0EPgQyBDoEMAAA lookup 0 subtable" uni1B80
Position2: "'mark' Mark Positioning in Sundanese lookup 3 subtable" dx=0 dy=0 dh=212 dv=0
EndChar

StartChar: uni1BA2
Encoding: 39 7074 42
Width: 0
GlyphClass: 4
Flags: W
HStem: -271 59<-201.028 -69.2056>
VStem: -54 66<-197.793 -102.234>
AnchorPoint: "+BBEENQQ3BEsEPARPBD0EPQQ+BDUA--4" -254 0 mark 0
AnchorPoint: "+BBEENQQ3BEsEPARPBD0EPQQ+BDUA--1" -254 0 mark 0
LayerCount: 2
Fore
SplineSet
-126 -271 m 0,0,1
 -169 -271 -169 -271 -208.5 -255 c 128,-1,2
 -248 -239 -248 -239 -283.5 -214 c 128,-1,3
 -319 -189 -319 -189 -350.5 -161 c 128,-1,4
 -382 -133 -382 -133 -408 -110 c 1,5,-1
 -554 -185 l 1,6,-1
 -585 -124 l 1,7,-1
 -397 -30 l 1,8,9
 -378 -47 -378 -47 -346.5 -77 c 128,-1,10
 -315 -107 -315 -107 -277.5 -138 c 128,-1,11
 -240 -169 -240 -169 -201 -190.5 c 128,-1,12
 -162 -212 -162 -212 -128 -212 c 0,13,14
 -90 -212 -90 -212 -72 -197 c 128,-1,15
 -54 -182 -54 -182 -54 -157 c 0,16,17
 -54 -129 -54 -129 -71 -108 c 128,-1,18
 -88 -87 -88 -87 -107 -65 c 1,19,-1
 -63 -25 l 1,20,21
 -35 -48 -35 -48 -11.5 -83.5 c 128,-1,22
 12 -119 12 -119 12 -155 c 0,23,24
 12 -197 12 -197 -7.5 -222.5 c 128,-1,25
 -27 -248 -27 -248 -58 -259.5 c 128,-1,26
 -89 -271 -89 -271 -126 -271 c 0,0,1
EndSplineSet
EndChar

StartChar: uni1BA3
Encoding: 40 7075 44
Width: 0
GlyphClass: 4
Flags: W
HStem: -240 45<-390 -328> -98 45<-476 -414>
VStem: -581 268
AnchorPoint: "+BBEENQQ3BEsEPARPBD0EPQQ+BDUA--4" -513 0 mark 0
AnchorPoint: "+BBEENQQ3BEsEPARPBD0EPQQ+BDUA--1" -513 0 mark 0
LayerCount: 2
Fore
SplineSet
-581 -248 m 1,0,-1
 -517 -53 l 1,1,-1
 -343 -53 l 1,2,-1
 -390 -195 l 1,3,-1
 -313 -195 l 1,4,-1
 -328 -240 l 1,5,-1
 -460 -240 l 1,6,-1
 -414 -98 l 1,7,-1
 -476 -98 l 1,8,-1
 -525 -248 l 1,9,-1
 -581 -248 l 1,0,-1
EndSplineSet
EndChar

StartChar: uni1BA4
Encoding: 41 7076 46
Width: 0
GlyphClass: 4
Flags: W
HStem: 791 48<-361.312 -342.324> 917 48<-358 -226>
VStem: -369 222
AnchorPoint: "+BBEENQQ3BEsEPARPBD0EPQQ+BDUA--3" -259 751 mark 0
AnchorPoint: "+BBEENQQ3BEsEPARPBD0EPQQ+BDUA--2" -15 747 basemark 0
AnchorPoint: "+BBEENQQ3BEsEPARPBD0EPQQ+BDUA--0" -259 751 mark 0
LayerCount: 2
Fore
SplineSet
-228 754 m 1,0,-1
 -369 791 l 1,1,-1
 -360 839 l 1,2,-1
 -262 825 l 1,3,-1
 -226 917 l 1,4,-1
 -358 917 l 1,5,-1
 -358 965 l 1,6,-1
 -147 965 l 1,7,-1
 -228 754 l 1,0,-1
EndSplineSet
EndChar

StartChar: uni1BA5
Encoding: 42 7077 48
Width: 0
GlyphClass: 4
Flags: W
HStem: -101 48<-538 -424>
VStem: -538 191<-70.7273 -53>
AnchorPoint: "+BBEENQQ3BEsEPARPBD0EPQQ+BDUA--4" -489 0 mark 0
AnchorPoint: "+BBEENQQ3BEsEPARPBD0EPQQ+BDUA--1" -489 0 mark 0
LayerCount: 2
Fore
SplineSet
-481 -248 m 1,0,-1
 -424 -101 l 1,1,-1
 -538 -101 l 1,2,-1
 -538 -53 l 1,3,-1
 -347 -53 l 1,4,-1
 -424 -248 l 1,5,-1
 -481 -248 l 1,0,-1
EndSplineSet
EndChar

StartChar: uni1BA6
Encoding: 43 7078 49
Width: 375
GlyphClass: 1
Flags: W
HStem: 0 68<125 292> 151 54<186 267> 288 68<8 153>
VStem: -14 328
CounterMasks: 1 e0
LayerCount: 2
Fore
SplineSet
24 0 m 1,0,-1
 153 288 l 1,1,-1
 -14 288 l 1,2,-1
 8 356 l 1,3,-1
 252 356 l 1,4,-1
 186 205 l 1,5,-1
 284 205 l 1,6,-1
 267 151 l 1,7,-1
 162 151 l 1,8,-1
 125 68 l 1,9,-1
 314 68 l 1,10,-1
 292 0 l 1,11,-1
 24 0 l 1,0,-1
EndSplineSet
EndChar

StartChar: uni1BA7
Encoding: 44 7079 50
Width: 375
GlyphClass: 1
Flags: W
HStem: 0 68<136 303> 151 54<21 102> 288 68<19 164>
VStem: -3 328
CounterMasks: 1 e0
LayerCount: 2
Fore
SplineSet
35 0 m 1,0,-1
 102 151 l 1,1,-1
 4 151 l 1,2,-1
 21 205 l 1,3,-1
 126 205 l 1,4,-1
 164 288 l 1,5,-1
 -3 288 l 1,6,-1
 19 356 l 1,7,-1
 263 356 l 1,8,-1
 136 68 l 1,9,-1
 325 68 l 1,10,-1
 303 0 l 1,11,-1
 35 0 l 1,0,-1
EndSplineSet
Substitution2: "+BBUENAQ4BD0EOARHBD0EMARP +BD8EPgQ0BEEEQgQwBD0EPgQyBDoEMAAA lookup 0 subtable" uni1B80
EndChar

StartChar: uni1BA8
Encoding: 45 7080 51
Width: 0
GlyphClass: 4
Flags: W
HStem: 756 199
VStem: -386 296
AnchorPoint: "+BBEENQQ3BEsEPARPBD0EPQQ+BDUA--3" -235 751 mark 0
AnchorPoint: "+BBEENQQ3BEsEPARPBD0EPQQ+BDUA--2" 39 747 basemark 0
AnchorPoint: "+BBEENQQ3BEsEPARPBD0EPQQ+BDUA--0" -235 751 mark 0
LayerCount: 2
Fore
SplineSet
-261 756 m 1,0,-1
 -386 955 l 1,1,-1
 -315 955 l 1,2,-1
 -238 827 l 1,3,-1
 -161 955 l 1,4,-1
 -90 955 l 1,5,-1
 -215 756 l 1,6,-1
 -261 756 l 1,0,-1
EndSplineSet
EndChar

StartChar: uni1BA9
Encoding: 46 7081 53
Width: 0
GlyphClass: 4
Flags: W
HStem: 756 199
VStem: -386 296
AnchorPoint: "+BBEENQQ3BEsEPARPBD0EPQQ+BDUA--3" -235 751 mark 0
AnchorPoint: "+BBEENQQ3BEsEPARPBD0EPQQ+BDUA--2" 39 747 basemark 0
AnchorPoint: "+BBEENQQ3BEsEPARPBD0EPQQ+BDUA--0" -235 751 mark 0
LayerCount: 2
Fore
SplineSet
-261 756 m 1,0,-1
 -386 955 l 1,1,-1
 -315 955 l 1,2,-1
 -280 897 l 1,3,-1
 -245 955 l 1,4,-1
 -194 955 l 1,5,-1
 -255 856 l 1,6,-1
 -238 827 l 1,7,-1
 -161 955 l 1,8,-1
 -90 955 l 1,9,-1
 -215 756 l 1,10,-1
 -261 756 l 1,0,-1
EndSplineSet
EndChar

StartChar: uni1BAA
Encoding: 47 7082 55
Width: 264
GlyphClass: 1
Flags: W
HStem: -127 50<72.4799 199.912> 284 45<-5 79>
VStem: 2 65<-71.7724 -20.3575> 141 63<83.6171 167.005>
LayerCount: 2
Fore
SplineSet
107 -127 m 0,0,1
 64 -127 64 -127 33 -112.5 c 128,-1,2
 2 -98 2 -98 2 -58 c 0,3,4
 2 -29 2 -29 24.5 -5 c 128,-1,5
 47 19 47 19 74 42 c 0,6,7
 100 64 100 64 120.5 85 c 128,-1,8
 141 106 141 106 141 127 c 0,9,10
 141 161 141 161 107 173 c 128,-1,11
 73 185 73 185 12 185 c 2,12,-1
 -12 185 l 1,13,-1
 -3 213 l 1,14,-1
 79 284 l 1,15,-1
 -20 284 l 1,16,-1
 -5 329 l 1,17,-1
 187 329 l 1,18,-1
 187 308 l 1,19,-1
 88 222 l 1,20,21
 141 217 141 217 172.5 194 c 128,-1,22
 204 171 204 171 204 127 c 0,23,24
 204 87 204 87 183.5 66 c 128,-1,25
 163 45 163 45 140 24 c 0,26,27
 114 0 114 0 90.5 -18.5 c 128,-1,28
 67 -37 67 -37 67 -52 c 0,29,30
 67 -62 67 -62 76.5 -69.5 c 128,-1,31
 86 -77 86 -77 111 -77 c 0,32,33
 143 -77 143 -77 166 -67.5 c 128,-1,34
 189 -58 189 -58 198 -53 c 1,35,-1
 215 -100 l 1,36,37
 193 -114 193 -114 162 -120.5 c 128,-1,38
 131 -127 131 -127 107 -127 c 0,0,1
EndSplineSet
EndChar

StartChar: uni1BAB
Encoding: 48 7083 56
Width: 0
GlyphClass: 4
Flags: W
HStem: -190.268 45.3594<-390.372 -266 -220.641 -96.2686>
VStem: -266 45.3594<-314.64 -190.268 -144.908 -22>
LayerCount: 2
Fore
SplineSet
-266 -314.639648438 m 1,0,-1
 -266 -190.267578125 l 1,1,-1
 -390.372070312 -190.267578125 l 1,2,-1
 -390.372070312 -144.908203125 l 1,3,-1
 -266 -144.908203125 l 1,4,-1
 -266 -22 l 1,5,-1
 -220.640625 -22 l 1,6,-1
 -220.640625 -144.908203125 l 1,7,-1
 -96.2685546875 -144.908203125 l 1,8,-1
 -96.2685546875 -190.267578125 l 1,9,-1
 -220.640625 -190.267578125 l 1,10,-1
 -220.640625 -314.639648438 l 1,11,-1
 -266 -314.639648438 l 1,0,-1
EndSplineSet
EndChar

StartChar: uni1BAC
Encoding: 49 7084 57
Width: 0
GlyphClass: 4
Flags: W
HStem: -271 59<-580.047 -400.638> -81 53<-577.091 -450>
VStem: -673 66<-188.664 -99.4305> -326 60<-134.273 -39>
AnchorPoint: "+BBEENQQ3BEsEPARPBD0EPQQ+BDUA--4" -479 0 mark 0
AnchorPoint: "+BBEENQQ3BEsEPARPBD0EPQQ+BDUA--1" -479 0 mark 0
LayerCount: 2
Fore
SplineSet
-489 -271 m 0,0,1
 -541 -271 -541 -271 -582.5 -255.5 c 128,-1,2
 -624 -240 -624 -240 -648.5 -211.5 c 128,-1,3
 -673 -183 -673 -183 -673 -144 c 0,4,5
 -673 -106 -673 -106 -649.5 -80.5 c 128,-1,6
 -626 -55 -626 -55 -588.5 -41.5 c 128,-1,7
 -551 -28 -551 -28 -509 -28 c 0,8,9
 -488 -28 -488 -28 -472.5 -29 c 128,-1,10
 -457 -30 -457 -30 -450 -32 c 1,11,-1
 -450 -83 l 1,12,13
 -459 -82 -459 -82 -475.5 -81.5 c 128,-1,14
 -492 -81 -492 -81 -509 -81 c 0,15,16
 -549 -81 -549 -81 -578 -95 c 128,-1,17
 -607 -109 -607 -109 -607 -144 c 0,18,19
 -607 -175 -607 -175 -578.5 -193.5 c 128,-1,20
 -550 -212 -550 -212 -491 -212 c 0,21,22
 -443 -212 -443 -212 -411 -196 c 128,-1,23
 -379 -180 -379 -180 -360.5 -154.5 c 128,-1,24
 -342 -129 -342 -129 -334 -101.5 c 128,-1,25
 -326 -74 -326 -74 -326 -52 c 2,26,-1
 -326 -39 l 1,27,-1
 -266 -39 l 1,28,-1
 -266 -50 l 2,29,30
 -266 -106 -266 -106 -290.5 -157 c 128,-1,31
 -315 -208 -315 -208 -364 -239.5 c 128,-1,32
 -413 -271 -413 -271 -489 -271 c 0,0,1
EndSplineSet
EndChar

StartChar: uni1BAD
Encoding: 50 7085 58
Width: 0
GlyphClass: 4
Flags: W
HStem: -248 43<-539 -417 -330 -208> -96 43<-665 -543 -456 -334>
AnchorPoint: "+BBEENQQ3BEsEPARPBD0EPQQ+BDUA--4" -479 0 mark 0
AnchorPoint: "+BBEENQQ3BEsEPARPBD0EPQQ+BDUA--1" -479 0 mark 0
LayerCount: 2
Fore
SplineSet
-401 -248 m 1,0,-1
 -334 -96 l 1,1,-1
 -456 -96 l 1,2,-1
 -456 -53 l 1,3,-1
 -263 -53 l 1,4,-1
 -330 -205 l 1,5,-1
 -208 -205 l 1,6,-1
 -208 -248 l 1,7,-1
 -401 -248 l 1,0,-1
-610 -248 m 1,8,-1
 -543 -96 l 1,9,-1
 -665 -96 l 1,10,-1
 -665 -53 l 1,11,-1
 -472 -53 l 1,12,-1
 -539 -205 l 1,13,-1
 -417 -205 l 1,14,-1
 -417 -248 l 1,15,-1
 -610 -248 l 1,8,-1
EndSplineSet
EndChar

StartChar: uni1BAE
Encoding: 51 7086 59
Width: 1382
GlyphClass: 2
Flags: W
HStem: 0 79<790 888> 333 79<687 779> 635 79<100 301 401 663 1166 1294>
AnchorPoint: "+BBEENQQ3BEsEPARPBD0EPQQ+BDUA--1" 1020 0 basechar 0
AnchorPoint: "+BBEENQQ3BEsEPARPBD0EPQQ+BDUA--0" 715 781 basechar 0
LayerCount: 2
Fore
SplineSet
92 0 m 1,0,-1
 301 635 l 1,1,-1
 74 635 l 1,2,-1
 100 714 l 1,3,-1
 787 714 l 1,4,-1
 687 412 l 1,5,-1
 902 412 l 1,6,-1
 790 79 l 1,7,-1
 888 79 l 1,8,-1
 1095 714 l 1,9,-1
 1418 714 l 1,10,-1
 1184 0 l 1,11,-1
 1086 0 l 1,12,-1
 1294 635 l 1,13,-1
 1166 635 l 1,14,-1
 958 0 l 1,15,-1
 667 0 l 1,16,-1
 779 333 l 1,17,-1
 661 333 l 1,18,-1
 551 0 l 1,19,-1
 454 0 l 1,20,-1
 663 635 l 1,21,-1
 401 635 l 1,22,-1
 189 0 l 1,23,-1
 92 0 l 1,0,-1
EndSplineSet
EndChar

StartChar: uni1BAF
Encoding: 52 7087 60
Width: 1647
GlyphClass: 2
Flags: W
HStem: 0 79<935 1102> 318 79<101 199 321 560 682 919> 635 79<101 306 400 667>
AnchorPoint: "+BBEENQQ3BEsEPARPBD0EPQQ+BDUA--1" 1313 0 basechar 0
AnchorPoint: "+BBEENQQ3BEsEPARPBD0EPQQ+BDUA--0" 840 781 basechar 0
LayerCount: 2
Fore
SplineSet
92 0 m 1,0,-1
 199 318 l 1,1,-1
 75 318 l 1,2,-1
 101 397 l 1,3,-1
 225 397 l 1,4,-1
 306 635 l 1,5,-1
 75 635 l 1,6,-1
 101 714 l 1,7,-1
 788 714 l 1,8,-1
 682 397 l 1,9,-1
 1042 397 l 1,10,-1
 935 79 l 1,11,-1
 1102 79 l 1,12,-1
 1309 714 l 1,13,-1
 1406 714 l 1,14,-1
 1312 427 l 1,15,-1
 1410 136 l 1,16,-1
 1542 536 l 1,17,-1
 1639 536 l 1,18,-1
 1463 0 l 1,19,-1
 1365 0 l 1,20,-1
 1266 286 l 1,21,-1
 1172 0 l 1,22,-1
 812 0 l 1,23,-1
 919 318 l 1,24,-1
 656 318 l 1,25,-1
 550 0 l 1,26,-1
 453 0 l 1,27,-1
 560 318 l 1,28,-1
 295 318 l 1,29,-1
 189 0 l 1,30,-1
 92 0 l 1,0,-1
321 397 m 1,31,-1
 586 397 l 1,32,-1
 667 635 l 1,33,-1
 400 635 l 1,34,-1
 321 397 l 1,31,-1
EndSplineSet
EndChar

StartChar: uni1BB0
Encoding: 53 7088 61
Width: 828
GlyphClass: 1
Flags: W
HStem: -2 92<314.577 523.166> 624 92<314.577 523.166>
VStem: 60 92<252.577 461.166> 686 92<252.577 461.166>
LayerCount: 2
Fore
SplineSet
419 -2 m 256,0,1
 345 -2 345 -2 280 26 c 128,-1,2
 215 54 215 54 165.5 103.5 c 128,-1,3
 116 153 116 153 88 218 c 128,-1,4
 60 283 60 283 60 357 c 256,5,6
 60 431 60 431 88 496 c 128,-1,7
 116 561 116 561 165.5 610.5 c 128,-1,8
 215 660 215 660 280 688 c 128,-1,9
 345 716 345 716 419 716 c 256,10,11
 493 716 493 716 558 688 c 128,-1,12
 623 660 623 660 672.5 610.5 c 128,-1,13
 722 561 722 561 750 496 c 128,-1,14
 778 431 778 431 778 357 c 256,15,16
 778 283 778 283 750 218 c 128,-1,17
 722 153 722 153 672.5 103.5 c 128,-1,18
 623 54 623 54 558 26 c 128,-1,19
 493 -2 493 -2 419 -2 c 256,0,1
419 90 m 256,20,21
 474 90 474 90 522 111 c 128,-1,22
 570 132 570 132 607 168.5 c 128,-1,23
 644 205 644 205 665 253.5 c 128,-1,24
 686 302 686 302 686 357 c 256,25,26
 686 412 686 412 665 460 c 128,-1,27
 644 508 644 508 607 545 c 128,-1,28
 570 582 570 582 522 603 c 128,-1,29
 474 624 474 624 419 624 c 256,30,31
 364 624 364 624 315.5 603 c 128,-1,32
 267 582 267 582 230.5 545 c 128,-1,33
 194 508 194 508 173 460 c 128,-1,34
 152 412 152 412 152 357 c 256,35,36
 152 302 152 302 173 253.5 c 128,-1,37
 194 205 194 205 230.5 168.5 c 128,-1,38
 267 132 267 132 315.5 111 c 128,-1,39
 364 90 364 90 419 90 c 256,20,21
EndSplineSet
EndChar

StartChar: uni1BB1
Encoding: 54 7089 62
Width: 799
GlyphClass: 1
Flags: W
HStem: 0 79<215 559> 272 79<533 621> 574 140<123 168 580 626> 635 79<188 301 399 558>
LayerCount: 2
Fore
SplineSet
91 0 m 1,0,-1
 301 635 l 1,1,-1
 188 635 l 1,2,-1
 168 574 l 1,3,-1
 77 574 l 1,4,-1
 123 714 l 1,5,-1
 626 714 l 1,6,-1
 674 574 l 1,7,-1
 580 574 l 1,8,-1
 558 635 l 1,9,-1
 399 635 l 1,10,-1
 215 79 l 1,11,-1
 559 79 l 1,12,-1
 621 272 l 1,13,-1
 533 272 l 1,14,-1
 510 211 l 1,15,-1
 418 211 l 1,16,-1
 465 351 l 1,17,-1
 741 351 l 1,18,-1
 627 0 l 1,19,-1
 91 0 l 1,0,-1
EndSplineSet
EndChar

StartChar: uni1BB2
Encoding: 55 7090 63
Width: 701
GlyphClass: 1
Flags: W
HStem: 0 79<218 510> 272 79<308 455> 635 79<188 302>
LayerCount: 2
Fore
SplineSet
93 0 m 1,0,-1
 302 635 l 1,1,-1
 188 635 l 1,2,-1
 168 574 l 1,3,-1
 77 574 l 1,4,-1
 123 714 l 1,5,-1
 428 714 l 1,6,-1
 308 351 l 1,7,-1
 481 351 l 1,8,-1
 455 272 l 1,9,-1
 282 272 l 1,10,-1
 218 79 l 1,11,-1
 510 79 l 1,12,-1
 561 236 l 1,13,-1
 655 236 l 1,14,-1
 578 0 l 1,15,-1
 93 0 l 1,0,-1
EndSplineSet
EndChar

StartChar: uni1BB3
Encoding: 56 7091 64
Width: 765
GlyphClass: 1
Flags: W
HStem: 0 79<217 518> 272 79<498.255 735> 635 79<187 301>
VStem: 398 92<200.456 263.696>
LayerCount: 2
Fore
SplineSet
92 0 m 1,0,-1
 301 635 l 1,1,-1
 187 635 l 1,2,-1
 167 574 l 1,3,-1
 76 574 l 1,4,-1
 122 714 l 1,5,-1
 427 714 l 1,6,-1
 217 79 l 1,7,-1
 518 79 l 1,8,-1
 457 133 l 2,9,10
 436 151 436 151 417 178.5 c 128,-1,11
 398 206 398 206 398 239 c 0,12,13
 398 286 398 286 429.5 318.5 c 128,-1,14
 461 351 461 351 534 351 c 2,15,-1
 761 351 l 1,16,-1
 735 272 l 1,17,-1
 535 272 l 2,18,19
 506 272 506 272 498 259.5 c 128,-1,20
 490 247 490 247 490 236 c 0,21,22
 490 222 490 222 508.5 203.5 c 128,-1,23
 527 185 527 185 540 173 c 2,24,-1
 673 54 l 1,25,-1
 655 0 l 1,26,-1
 92 0 l 1,0,-1
EndSplineSet
EndChar

StartChar: uni1BB4
Encoding: 57 7092 65
Width: 535
GlyphClass: 1
Flags: W
HStem: 0 21G<137 239.667> 303 79<150 237 360 449> 635 79<181 348>
LayerCount: 2
Fore
SplineSet
137 0 m 1,0,-1
 237 303 l 1,1,-1
 150 303 l 1,2,-1
 136 259 l 1,3,-1
 45 259 l 1,4,-1
 85 382 l 1,5,-1
 264 382 l 1,6,-1
 348 635 l 1,7,-1
 181 635 l 1,8,-1
 161 574 l 1,9,-1
 70 574 l 1,10,-1
 116 714 l 1,11,-1
 471 714 l 1,12,-1
 360 382 l 1,13,-1
 449 382 l 1,14,-1
 463 426 l 1,15,-1
 554 426 l 1,16,-1
 514 303 l 1,17,-1
 334 303 l 1,18,-1
 233 0 l 1,19,-1
 137 0 l 1,0,-1
EndSplineSet
EndChar

StartChar: uni1BB5
Encoding: 58 7093 66
Width: 866
GlyphClass: 1
Flags: W
HStem: 0 79<185 704> 635 79<200 271 618 689>
LayerCount: 2
Fore
SplineSet
62 0 m 1,0,-1
 271 635 l 1,1,-1
 200 635 l 1,2,-1
 180 574 l 1,3,-1
 89 574 l 1,4,-1
 134 714 l 1,5,-1
 394 714 l 1,6,-1
 185 79 l 1,7,-1
 704 79 l 1,8,-1
 495 714 l 1,9,-1
 755 714 l 1,10,-1
 800 574 l 1,11,-1
 709 574 l 1,12,-1
 689 635 l 1,13,-1
 618 635 l 1,14,-1
 827 0 l 1,15,-1
 62 0 l 1,0,-1
EndSplineSet
EndChar

StartChar: uni1BB6
Encoding: 59 7094 67
Width: 663
GlyphClass: 1
Flags: W
HStem: 0 79<101 404> 272 79<384.255 621> 635 79<285 365>
VStem: 284 92<200.456 263.696>
LayerCount: 2
Fore
SplineSet
-22 0 m 1,0,-1
 213 714 l 1,1,-1
 434 714 l 1,2,-1
 475 588 l 1,3,-1
 384 588 l 1,4,-1
 365 635 l 1,5,-1
 285 635 l 1,6,-1
 101 79 l 1,7,-1
 404 79 l 1,8,-1
 343 133 l 2,9,10
 322 151 322 151 303 178.5 c 128,-1,11
 284 206 284 206 284 239 c 0,12,13
 284 286 284 286 315.5 318.5 c 128,-1,14
 347 351 347 351 420 351 c 2,15,-1
 647 351 l 1,16,-1
 621 272 l 1,17,-1
 421 272 l 2,18,19
 392 272 392 272 384 259.5 c 128,-1,20
 376 247 376 247 376 236 c 0,21,22
 376 222 376 222 394.5 203.5 c 128,-1,23
 413 185 413 185 426 173 c 2,24,-1
 559 54 l 1,25,-1
 541 0 l 1,26,-1
 -22 0 l 1,0,-1
EndSplineSet
EndChar

StartChar: uni1BB7
Encoding: 60 7095 68
Width: 742
GlyphClass: 1
Flags: W
HStem: 0 79<-53 25 323 441> 635 79<306 410 723 801>
LayerCount: 2
Fore
SplineSet
-79 0 m 1,0,-1
 -53 79 l 1,1,-1
 25 79 l 1,2,-1
 233 714 l 1,3,-1
 533 714 l 1,4,-1
 323 79 l 1,5,-1
 441 79 l 1,6,-1
 650 714 l 1,7,-1
 827 714 l 1,8,-1
 801 635 l 1,9,-1
 723 635 l 1,10,-1
 514 0 l 1,11,-1
 199 0 l 1,12,-1
 410 635 l 1,13,-1
 306 635 l 1,14,-1
 97 0 l 1,15,-1
 -79 0 l 1,0,-1
EndSplineSet
EndChar

StartChar: uni1BB8
Encoding: 61 7096 69
Width: 797
GlyphClass: 1
Flags: W
HStem: -14 90<340.847 430.182> -13 72<79.935 161.857> 158 76<80.8304 180.457> 635 79<210 350 714 763>
VStem: -10 79<70.4775 147.351>
LayerCount: 2
Fore
SplineSet
387 -14 m 0,0,1
 350 -14 350 -14 323 3 c 128,-1,2
 296 20 296 20 279 40 c 128,-1,3
 262 60 262 60 254 68 c 1,4,5
 234 32 234 32 203 9.5 c 128,-1,6
 172 -13 172 -13 120 -13 c 0,7,8
 88 -13 88 -13 58 -1 c 128,-1,9
 28 11 28 11 9 37 c 128,-1,10
 -10 63 -10 63 -10 105 c 0,11,12
 -10 149 -10 149 9 177.5 c 128,-1,13
 28 206 28 206 59 220 c 128,-1,14
 90 234 90 234 124 234 c 0,15,16
 147 234 147 234 172 227.5 c 128,-1,17
 197 221 197 221 212 212 c 1,18,-1
 350 635 l 1,19,-1
 210 635 l 1,20,-1
 190 574 l 1,21,-1
 99 574 l 1,22,-1
 144 714 l 1,23,-1
 473 714 l 1,24,-1
 290 158 l 1,25,26
 296 150 296 150 311 130 c 128,-1,27
 326 110 326 110 346.5 93 c 128,-1,28
 367 76 367 76 387 76 c 0,29,30
 414 76 414 76 427.5 89.5 c 128,-1,31
 441 103 441 103 453.5 140.5 c 128,-1,32
 466 178 466 178 489 249 c 2,33,-1
 643 714 l 1,34,-1
 832 714 l 1,35,-1
 881 564 l 1,36,-1
 790 564 l 1,37,-1
 763 635 l 1,38,-1
 714 635 l 1,39,-1
 566 187 l 2,40,41
 544 119 544 119 524 74.5 c 128,-1,42
 504 30 504 30 473 8 c 128,-1,43
 442 -14 442 -14 387 -14 c 0,0,1
121 59 m 0,44,45
 142 59 142 59 155 72.5 c 128,-1,46
 168 86 168 86 175.5 103.5 c 128,-1,47
 183 121 183 121 186 131 c 1,48,49
 173 144 173 144 157.5 151 c 128,-1,50
 142 158 142 158 122 158 c 0,51,52
 100 158 100 158 84.5 145.5 c 128,-1,53
 69 133 69 133 69 110 c 0,54,55
 69 88 69 88 82.5 73.5 c 128,-1,56
 96 59 96 59 121 59 c 0,44,45
EndSplineSet
EndChar

StartChar: uni1BB9
Encoding: 62 7097 70
Width: 745
GlyphClass: 1
Flags: W
HStem: 0 79<195 498> 272 79<478.255 715> 635 79<228 281 379 459>
VStem: 378 92<200.456 263.696>
LayerCount: 2
Fore
SplineSet
72 0 m 1,0,-1
 281 635 l 1,1,-1
 228 635 l 1,2,-1
 209 574 l 1,3,-1
 116 574 l 1,4,-1
 161 714 l 1,5,-1
 528 714 l 1,6,-1
 569 588 l 1,7,-1
 478 588 l 1,8,-1
 459 635 l 1,9,-1
 379 635 l 1,10,-1
 195 79 l 1,11,-1
 498 79 l 1,12,-1
 437 133 l 2,13,14
 416 151 416 151 397 178.5 c 128,-1,15
 378 206 378 206 378 239 c 0,16,17
 378 286 378 286 409.5 318.5 c 128,-1,18
 441 351 441 351 514 351 c 2,19,-1
 741 351 l 1,20,-1
 715 272 l 1,21,-1
 515 272 l 2,22,23
 486 272 486 272 478 259.5 c 128,-1,24
 470 247 470 247 470 236 c 0,25,26
 470 222 470 222 488.5 203.5 c 128,-1,27
 507 185 507 185 520 173 c 2,28,-1
 653 54 l 1,29,-1
 635 0 l 1,30,-1
 72 0 l 1,0,-1
EndSplineSet
EndChar

StartChar: uni1BBA
Encoding: 63 7098 71
Width: 364
GlyphClass: 1
Flags: W
HStem: 0 21G<71 175.639> 501 79<116 236> 635 79<159 280>
LayerCount: 2
Fore
SplineSet
71 0 m 1,0,-1
 236 501 l 1,1,-1
 90 501 l 1,2,-1
 116 580 l 1,3,-1
 262 580 l 1,4,-1
 280 635 l 1,5,-1
 133 635 l 1,6,-1
 159 714 l 1,7,-1
 406 714 l 1,8,-1
 169 0 l 1,9,-1
 71 0 l 1,0,-1
EndSplineSet
EndChar

StartChar: uni1BBB
Encoding: 64 7099 72
Width: 712
GlyphClass: 2
Flags: W
HStem: 0 79<90 513> 161 79<243 494> 635 79<123 274 474 624>
AnchorPoint: "+BBEENQQ3BEsEPARPBD0EPQQ+BDUA--1" 366 0 basechar 0
AnchorPoint: "+BBEENQQ3BEsEPARPBD0EPQQ+BDUA--0" 390 781 basechar 0
LayerCount: 2
Fore
SplineSet
118 161 m 1,0,-1
 274 635 l 1,1,-1
 97 635 l 1,2,-1
 123 714 l 1,3,-1
 400 714 l 1,4,-1
 243 240 l 1,5,-1
 494 240 l 1,6,-1
 624 635 l 1,7,-1
 448 635 l 1,8,-1
 474 714 l 1,9,-1
 750 714 l 1,10,-1
 567 161 l 1,11,-1
 118 161 l 1,0,-1
64 0 m 1,12,-1
 90 79 l 1,13,-1
 539 79 l 1,14,-1
 513 0 l 1,15,-1
 64 0 l 1,12,-1
EndSplineSet
EndChar

StartChar: uni1BBC
Encoding: 65 7100 73
Width: 1180
GlyphClass: 2
Flags: W
HStem: -303 74<600.157 680.72> -300 85<850.813 955.372> -125 73<601.216 684.097> 0 79<101 308> 635 79<284 487 772 976>
VStem: 509 79<-217.411 -137.581> 1030 88<-70.3317 108>
AnchorPoint: "+BBEENQQ3BEsEPARPBD0EPQQ+BDUA--1" 292 0 basechar 0
AnchorPoint: "+BBEENQQ3BEsEPARPBD0EPQQ+BDUA--0" 570 781 basechar 0
LayerCount: 2
Fore
SplineSet
646 -303 m 0,0,1
 579 -303 579 -303 544 -266 c 128,-1,2
 509 -229 509 -229 509 -179 c 0,3,4
 509 -149 509 -149 524 -119.5 c 128,-1,5
 539 -90 539 -90 569 -71 c 128,-1,6
 599 -52 599 -52 643 -52 c 0,7,8
 670 -52 670 -52 692.5 -61.5 c 128,-1,9
 715 -71 715 -71 733 -86 c 1,10,-1
 976 635 l 1,11,-1
 746 635 l 1,12,-1
 772 714 l 1,13,-1
 1099 714 l 1,14,-1
 809 -156 l 1,15,16
 819 -166 819 -166 834.5 -180 c 128,-1,17
 850 -194 850 -194 869 -204.5 c 128,-1,18
 888 -215 888 -215 906 -215 c 0,19,20
 942 -215 942 -215 967 -180 c 128,-1,21
 992 -145 992 -145 1007 -87.5 c 128,-1,22
 1022 -30 1022 -30 1028 37 c 0,23,24
 1030 54 1030 54 1030 72 c 128,-1,25
 1030 90 1030 90 1030 108 c 1,26,-1
 1118 108 l 1,27,28
 1117 81 1117 81 1113 40.5 c 128,-1,29
 1109 0 1109 0 1101 -46 c 128,-1,30
 1093 -92 1093 -92 1078 -136.5 c 128,-1,31
 1063 -181 1063 -181 1040 -218 c 128,-1,32
 1017 -255 1017 -255 984 -277.5 c 128,-1,33
 951 -300 951 -300 906 -300 c 0,34,35
 877 -300 877 -300 849 -289.5 c 128,-1,36
 821 -279 821 -279 799 -264.5 c 128,-1,37
 777 -250 777 -250 765 -238 c 1,38,39
 752 -263 752 -263 721.5 -283 c 128,-1,40
 691 -303 691 -303 646 -303 c 0,0,1
-22 0 m 1,41,-1
 214 714 l 1,42,-1
 513 714 l 1,43,-1
 487 635 l 1,44,-1
 284 635 l 1,45,-1
 101 79 l 1,46,-1
 308 79 l 1,47,-1
 426 414 l 1,48,-1
 518 414 l 1,49,-1
 662 0 l 1,50,-1
 567 0 l 1,51,-1
 472 284 l 1,52,-1
 379 0 l 1,53,-1
 -22 0 l 1,41,-1
641 -229 m 0,54,55
 665 -229 665 -229 679.5 -209.5 c 128,-1,56
 694 -190 694 -190 698 -168 c 1,57,58
 692 -157 692 -157 680 -141 c 128,-1,59
 668 -125 668 -125 643 -125 c 0,60,61
 620 -125 620 -125 604 -139.5 c 128,-1,62
 588 -154 588 -154 588 -178 c 0,63,64
 588 -201 588 -201 603 -215 c 128,-1,65
 618 -229 618 -229 641 -229 c 0,54,55
EndSplineSet
EndChar

StartChar: uni1BBD
Encoding: 66 7101 74
Width: 1336
GlyphClass: 2
Flags: W
HStem: 0 79<166 375 474 692 791 988> 275 79<193 279> 284 79<1037 1158> 635 79<286 559 974 1246>
AnchorPoint: "+BBEENQQ3BEsEPARPBD0EPQQ+BDUA--1" 839 0 basechar 0
AnchorPoint: "+BBEENQQ3BEsEPARPBD0EPQQ+BDUA--0" 670 781 basechar 0
LayerCount: 2
Fore
SplineSet
140 0 m 1,0,-1
 166 79 l 1,1,-1
 375 79 l 1,2,-1
 559 635 l 1,3,-1
 286 635 l 1,4,-1
 193 354 l 1,5,-1
 305 354 l 1,6,-1
 279 275 l 1,7,-1
 69 275 l 1,8,-1
 213 714 l 1,9,-1
 686 714 l 1,10,-1
 474 79 l 1,11,-1
 692 79 l 1,12,-1
 902 714 l 1,13,-1
 1372 714 l 1,14,-1
 1230 284 l 1,15,-1
 1011 284 l 1,16,-1
 1037 363 l 1,17,-1
 1158 363 l 1,18,-1
 1246 635 l 1,19,-1
 974 635 l 1,20,-1
 791 79 l 1,21,-1
 1014 79 l 1,22,-1
 988 0 l 1,23,-1
 140 0 l 1,0,-1
EndSplineSet
EndChar

StartChar: uni1BBE
Encoding: 67 7102 75
Width: 1075
GlyphClass: 1
Flags: W
HStem: 0 79<100 244 343 729 828 1008> 460 75<97 230 582 715> 635 79<108 427 600 912>
LayerCount: 2
Fore
SplineSet
74 0 m 1,0,-1
 100 79 l 1,1,-1
 244 79 l 1,2,-1
 427 635 l 1,3,-1
 82 635 l 1,4,-1
 108 714 l 1,5,-1
 553 714 l 1,6,-1
 343 79 l 1,7,-1
 729 79 l 1,8,-1
 912 635 l 1,9,-1
 574 635 l 1,10,-1
 600 714 l 1,11,-1
 1038 714 l 1,12,-1
 828 79 l 1,13,-1
 1034 79 l 1,14,-1
 1008 0 l 1,15,-1
 74 0 l 1,0,-1
136 176 m 1,16,-1
 230 460 l 1,17,-1
 72 460 l 1,18,-1
 97 535 l 1,19,-1
 338 535 l 1,20,-1
 219 176 l 1,21,-1
 136 176 l 1,16,-1
621 176 m 1,22,-1
 715 460 l 1,23,-1
 557 460 l 1,24,-1
 582 535 l 1,25,-1
 823 535 l 1,26,-1
 704 176 l 1,27,-1
 621 176 l 1,22,-1
EndSplineSet
EndChar

StartChar: uni1BBF
Encoding: 68 7103 76
Width: 727
GlyphClass: 1
Flags: W
HStem: -287.607 79<189.909 325.676> -118.157 79<200.011 369.94> 41 79<138 353> 239 79<138 418> 437 79<138 483> 635 79<138 641>
VStem: 99.3174 81.498<-195.788 -138.727>
LayerCount: 2
Fore
SplineSet
112 437 m 1,0,-1
 138 516 l 1,1,-1
 509 516 l 1,2,-1
 483 437 l 1,3,-1
 112 437 l 1,0,-1
112 239 m 1,4,-1
 138 318 l 1,5,-1
 444 318 l 1,6,-1
 418 239 l 1,7,-1
 112 239 l 1,4,-1
112 41 m 1,8,-1
 138 120 l 1,9,-1
 379 120 l 1,10,-1
 353 41 l 1,11,-1
 112 41 l 1,8,-1
180.815429688 -167.612304688 m 1,12,13
 180.815429688 -183.467773438 180.815429688 -183.467773438 202.395507812 -196.037109375 c 128,-1,14
 223.9765625 -208.607421875 223.9765625 -208.607421875 260.049804688 -208.607421875 c 128,-1,15
 296.122070312 -208.607421875 296.122070312 -208.607421875 320.604492188 -190.943359375 c 128,-1,16
 345.086914062 -173.279296875 345.086914062 -173.279296875 370.884765625 -128.649414062 c 1,17,18
 328.670898438 -118.157226562 328.670898438 -118.157226562 287.436523438 -118.157226562 c 128,-1,19
 246.203125 -118.157226562 246.203125 -118.157226562 213.561523438 -132.806640625 c 128,-1,20
 180.815429688 -147.502929688 180.815429688 -147.502929688 180.815429688 -167.612304688 c 1,12,13
403.002929688 -55.3330078125 m 1,21,22
 411.478515625 -36.7685546875 411.478515625 -36.7685546875 427 0 c 2,23,-1
 641 635 l 1,24,-1
 112 635 l 1,25,-1
 138 714 l 1,26,-1
 764 714 l 1,27,-1
 526 0 l 1,28,29
 505.219726562 -48.6630859375 505.219726562 -48.6630859375 485.497070312 -85.470703125 c 1,30,31
 589.438476562 -132.119140625 589.438476562 -132.119140625 683.670898438 -215.049804688 c 1,32,-1
 676.083984375 -223.703125 l 2,33,34
 661.961914062 -239.774414062 661.961914062 -239.774414062 631.516601562 -274.368164062 c 1,35,36
 543.298828125 -196.732421875 543.298828125 -196.732421875 446.788085938 -154.744140625 c 1,37,38
 410.37890625 -221.829101562 410.37890625 -221.829101562 367.639648438 -254.717773438 c 128,-1,39
 324.900390625 -287.607421875 324.900390625 -287.607421875 247.318359375 -287.607421875 c 128,-1,40
 169.737304688 -287.607421875 169.737304688 -287.607421875 125.029296875 -235.626953125 c 0,41,42
 99.3173828125 -205.732421875 99.3173828125 -205.732421875 99.3173828125 -173.866210938 c 128,-1,43
 99.3173828125 -142.000976562 99.3173828125 -142.000976562 121.21875 -109.909179688 c 128,-1,44
 143.12109375 -77.818359375 143.12109375 -77.818359375 186.192382812 -58.4873046875 c 128,-1,45
 229.263671875 -39.1572265625 229.263671875 -39.1572265625 287.048828125 -39.1572265625 c 128,-1,46
 344.834960938 -39.1572265625 344.834960938 -39.1572265625 403.002929688 -55.3330078125 c 1,21,22
EndSplineSet
EndChar

StartChar: uni1CC0
Encoding: 69 7360 77
Width: 1018
GlyphClass: 1
Flags: W
HStem: 260 53<473.041 542.959> 311 96<144 234.541 779.477 870> 403 53<473.041 542.959>
VStem: 410 53<323.041 392.959> 460 96<-5 85.5234 630.494 721> 553 53<323.041 392.959>
LayerCount: 2
Fore
SplineSet
375 -113 m 1,0,-1
 460 -5 l 1,1,-1
 460 81 l 1,2,3
 402 91 402 91 353.5 123 c 128,-1,4
 305 155 305 155 272.5 203.5 c 128,-1,5
 240 252 240 252 230 311 c 1,6,-1
 144 311 l 1,7,-1
 36 226 l 1,8,-1
 36 287 l 1,9,-1
 127 359 l 1,10,-1
 36 431 l 1,11,-1
 36 492 l 1,12,-1
 144 407 l 1,13,-1
 230 407 l 1,14,15
 240 466 240 466 272.5 514 c 128,-1,16
 305 562 305 562 353.5 593.5 c 128,-1,17
 402 625 402 625 460 635 c 1,18,-1
 460 721 l 1,19,-1
 375 829 l 1,20,-1
 436 829 l 1,21,-1
 508 738 l 1,22,-1
 580 829 l 1,23,-1
 641 829 l 1,24,-1
 556 721 l 1,25,-1
 556 635 l 1,26,27
 615 625 615 625 662.5 593.5 c 128,-1,28
 710 562 710 562 742 514 c 128,-1,29
 774 466 774 466 784 407 c 1,30,-1
 870 407 l 1,31,-1
 978 492 l 1,32,-1
 978 431 l 1,33,-1
 887 359 l 1,34,-1
 978 287 l 1,35,-1
 978 226 l 1,36,-1
 870 311 l 1,37,-1
 784 311 l 1,38,39
 774 252 774 252 742 203.5 c 128,-1,40
 710 155 710 155 662.5 123 c 128,-1,41
 615 91 615 91 556 81 c 1,42,-1
 556 -5 l 1,43,-1
 641 -113 l 1,44,-1
 580 -113 l 1,45,-1
 508 -22 l 1,46,-1
 436 -113 l 1,47,-1
 375 -113 l 1,0,-1
508 154 m 0,48,49
 564 154 564 154 610 182 c 128,-1,50
 656 210 656 210 683.5 256.5 c 128,-1,51
 711 303 711 303 711 358 c 0,52,53
 711 414 711 414 683.5 460 c 128,-1,54
 656 506 656 506 610 534 c 128,-1,55
 564 562 564 562 508 562 c 0,56,57
 453 562 453 562 406 534 c 128,-1,58
 359 506 359 506 330.5 460 c 128,-1,59
 302 414 302 414 302 358 c 0,60,61
 302 303 302 303 330.5 256.5 c 128,-1,62
 359 210 359 210 406 182 c 128,-1,63
 453 154 453 154 508 154 c 0,48,49
508 260 m 256,64,65
 468 260 468 260 439 289 c 128,-1,66
 410 318 410 318 410 358 c 256,67,68
 410 398 410 398 439 427 c 128,-1,69
 468 456 468 456 508 456 c 256,70,71
 548 456 548 456 577 427 c 128,-1,72
 606 398 606 398 606 358 c 256,73,74
 606 318 606 318 577 289 c 128,-1,75
 548 260 548 260 508 260 c 256,64,65
508 313 m 256,76,77
 527 313 527 313 540 326 c 128,-1,78
 553 339 553 339 553 358 c 256,79,80
 553 377 553 377 540 390 c 128,-1,81
 527 403 527 403 508 403 c 256,82,83
 489 403 489 403 476 390 c 128,-1,84
 463 377 463 377 463 358 c 256,85,86
 463 339 463 339 476 326 c 128,-1,87
 489 313 489 313 508 313 c 256,76,77
EndSplineSet
EndChar

StartChar: uni1CC1
Encoding: 70 7361 78
Width: 674
GlyphClass: 1
Flags: W
HStem: 81 73<252.001 435.225> 562 73<253.843 434.417>
VStem: 67 73<266.001 449.225> 548 73<267.843 448.417>
LayerCount: 2
Fore
SplineSet
344 81 m 256,0,1
 287 81 287 81 236.5 102.5 c 128,-1,2
 186 124 186 124 148 162 c 128,-1,3
 110 200 110 200 88.5 250.5 c 128,-1,4
 67 301 67 301 67 358 c 256,5,6
 67 415 67 415 88.5 465.5 c 128,-1,7
 110 516 110 516 148 554 c 128,-1,8
 186 592 186 592 236.5 613.5 c 128,-1,9
 287 635 287 635 344 635 c 256,10,11
 401 635 401 635 451.5 613.5 c 128,-1,12
 502 592 502 592 540 554 c 128,-1,13
 578 516 578 516 599.5 465.5 c 128,-1,14
 621 415 621 415 621 358 c 256,15,16
 621 301 621 301 599.5 250.5 c 128,-1,17
 578 200 578 200 540 162 c 128,-1,18
 502 124 502 124 451.5 102.5 c 128,-1,19
 401 81 401 81 344 81 c 256,0,1
343 403 m 1,20,-1
 463 523 l 1,21,22
 438 541 438 541 407.5 551.5 c 128,-1,23
 377 562 377 562 344 562 c 0,24,25
 310 562 310 562 280 551.5 c 128,-1,26
 250 541 250 541 224 522 c 1,27,-1
 343 403 l 1,20,-1
508 238 m 1,28,29
 527 264 527 264 537.5 294 c 128,-1,30
 548 324 548 324 548 358 c 0,31,32
 548 391 548 391 537.5 421.5 c 128,-1,33
 527 452 527 452 509 477 c 1,34,-1
 389 357 l 1,35,-1
 508 238 l 1,28,29
179 239 m 1,36,-1
 297 357 l 1,37,-1
 178 476 l 1,38,39
 160 451 160 451 150 421 c 128,-1,40
 140 391 140 391 140 358 c 0,41,42
 140 290 140 290 179 239 c 1,36,-1
344 154 m 0,43,44
 377 154 377 154 407 164 c 128,-1,45
 437 174 437 174 462 192 c 1,46,-1
 343 311 l 1,47,-1
 225 193 l 1,48,49
 276 154 276 154 344 154 c 0,43,44
EndSplineSet
EndChar

StartChar: uni1CC2
Encoding: 71 7362 79
Width: 674
GlyphClass: 1
Flags: W
HStem: 81 73<253.74 434.22> 248 66<249.353 438.306> 402 66<249.353 438.306> 562 73<253.74 434.22>
VStem: 67 73<266.702 449.298> 548 73<267.884 447.733>
LayerCount: 2
Fore
SplineSet
344 81 m 256,0,1
 287 81 287 81 236.5 102.5 c 128,-1,2
 186 124 186 124 148 162 c 128,-1,3
 110 200 110 200 88.5 250.5 c 128,-1,4
 67 301 67 301 67 358 c 256,5,6
 67 415 67 415 88.5 465.5 c 128,-1,7
 110 516 110 516 148 554 c 128,-1,8
 186 592 186 592 236.5 613.5 c 128,-1,9
 287 635 287 635 344 635 c 256,10,11
 401 635 401 635 451.5 613.5 c 128,-1,12
 502 592 502 592 540 554 c 128,-1,13
 578 516 578 516 599.5 465.5 c 128,-1,14
 621 415 621 415 621 358 c 256,15,16
 621 301 621 301 599.5 250.5 c 128,-1,17
 578 200 578 200 540 162 c 128,-1,18
 502 124 502 124 451.5 102.5 c 128,-1,19
 401 81 401 81 344 81 c 256,0,1
344 468 m 256,20,21
 391 468 391 468 425 483.5 c 128,-1,22
 459 499 459 499 476 512 c 1,23,24
 450 535 450 535 416 548.5 c 128,-1,25
 382 562 382 562 344 562 c 256,26,27
 306 562 306 562 272 548.5 c 128,-1,28
 238 535 238 535 211 512 c 1,29,30
 228 499 228 499 262.5 483.5 c 128,-1,31
 297 468 297 468 344 468 c 256,20,21
169 253 m 1,32,33
 193 271 193 271 238 292.5 c 128,-1,34
 283 314 283 314 344 314 c 256,35,36
 405 314 405 314 450 292.5 c 128,-1,37
 495 271 495 271 518 253 c 1,38,39
 532 276 532 276 540 302.5 c 128,-1,40
 548 329 548 329 548 358 c 0,41,42
 548 414 548 414 518 463 c 1,43,44
 495 444 495 444 450 423 c 128,-1,45
 405 402 405 402 344 402 c 256,46,47
 283 402 283 402 238 423 c 128,-1,48
 193 444 193 444 169 463 c 1,49,50
 156 440 156 440 148 413.5 c 128,-1,51
 140 387 140 387 140 358 c 256,52,53
 140 329 140 329 148 302.5 c 128,-1,54
 156 276 156 276 169 253 c 1,32,33
344 154 m 256,55,56
 382 154 382 154 416 167.5 c 128,-1,57
 450 181 450 181 476 203 c 1,58,59
 459 217 459 217 425 232.5 c 128,-1,60
 391 248 391 248 344 248 c 256,61,62
 297 248 297 248 262.5 232.5 c 128,-1,63
 228 217 228 217 211 203 c 1,64,65
 238 181 238 181 272 167.5 c 128,-1,66
 306 154 306 154 344 154 c 256,55,56
EndSplineSet
EndChar

StartChar: uni1CC3
Encoding: 72 7363 80
Width: 674
GlyphClass: 1
Flags: W
HStem: 81 73<252.113 435.887> 562 73<252.113 435.887>
VStem: 67 73<266.113 449.887> 548 73<266.113 449.887>
LayerCount: 2
Fore
SplineSet
344 81 m 256,0,1
 287 81 287 81 236.5 102.5 c 128,-1,2
 186 124 186 124 148 162 c 128,-1,3
 110 200 110 200 88.5 250.5 c 128,-1,4
 67 301 67 301 67 358 c 256,5,6
 67 415 67 415 88.5 465.5 c 128,-1,7
 110 516 110 516 148 554 c 128,-1,8
 186 592 186 592 236.5 613.5 c 128,-1,9
 287 635 287 635 344 635 c 256,10,11
 401 635 401 635 451.5 613.5 c 128,-1,12
 502 592 502 592 540 554 c 128,-1,13
 578 516 578 516 599.5 465.5 c 128,-1,14
 621 415 621 415 621 358 c 256,15,16
 621 301 621 301 599.5 250.5 c 128,-1,17
 578 200 578 200 540 162 c 128,-1,18
 502 124 502 124 451.5 102.5 c 128,-1,19
 401 81 401 81 344 81 c 256,0,1
344 154 m 256,20,21
 400 154 400 154 446.5 181.5 c 128,-1,22
 493 209 493 209 520.5 255.5 c 128,-1,23
 548 302 548 302 548 358 c 256,24,25
 548 414 548 414 520.5 460.5 c 128,-1,26
 493 507 493 507 446.5 534.5 c 128,-1,27
 400 562 400 562 344 562 c 256,28,29
 288 562 288 562 241.5 534.5 c 128,-1,30
 195 507 195 507 167.5 460.5 c 128,-1,31
 140 414 140 414 140 358 c 256,32,33
 140 302 140 302 167.5 255.5 c 128,-1,34
 195 209 195 209 241.5 181.5 c 128,-1,35
 288 154 288 154 344 154 c 256,20,21
EndSplineSet
EndChar

StartChar: uni1CC4
Encoding: 73 7364 81
Width: 1680
GlyphClass: 1
Flags: W
HStem: -303 74<879.157 959.72> -300 85<1129.81 1233.49> -125 73<880.216 963.097> 0 79<101 308> 41 79<738 951 1295 1508> 239 79<678 1017 1361 1574> 437 79<619 1078 1427 1640> 635 79<284 487 559 975 1051 1255 1491 1704>
VStem: 788 79<-217.411 -137.581>
LayerCount: 2
Fore
SplineSet
925 -303 m 0,0,1
 858 -303 858 -303 823 -266 c 128,-1,2
 788 -229 788 -229 788 -179 c 0,3,4
 788 -149 788 -149 803 -119.5 c 128,-1,5
 818 -90 818 -90 848 -71 c 128,-1,6
 878 -52 878 -52 922 -52 c 0,7,8
 949 -52 949 -52 971.5 -61.5 c 128,-1,9
 994 -71 994 -71 1012 -86 c 1,10,-1
 1255 635 l 1,11,-1
 1025 635 l 1,12,-1
 1051 714 l 1,13,-1
 1378 714 l 1,14,-1
 1088 -156 l 1,15,16
 1098 -166 1098 -166 1113.5 -180 c 128,-1,17
 1129 -194 1129 -194 1148 -204.5 c 128,-1,18
 1167 -215 1167 -215 1185 -215 c 0,19,20
 1217 -215 1217 -215 1232 -195.5 c 128,-1,21
 1247 -176 1247 -176 1260 -152 c 1,22,-1
 1328 -192 l 1,23,24
 1317 -216 1317 -216 1298.5 -241 c 128,-1,25
 1280 -266 1280 -266 1252.5 -283 c 128,-1,26
 1225 -300 1225 -300 1185 -300 c 0,27,28
 1156 -300 1156 -300 1128 -289.5 c 128,-1,29
 1100 -279 1100 -279 1078 -264.5 c 128,-1,30
 1056 -250 1056 -250 1044 -238 c 1,31,32
 1031 -263 1031 -263 1000.5 -283 c 128,-1,33
 970 -303 970 -303 925 -303 c 0,0,1
-22 0 m 1,34,-1
 214 714 l 1,35,-1
 513 714 l 1,36,-1
 487 635 l 1,37,-1
 284 635 l 1,38,-1
 101 79 l 1,39,-1
 308 79 l 1,40,-1
 426 414 l 1,41,-1
 518 414 l 1,42,-1
 662 0 l 1,43,-1
 567 0 l 1,44,-1
 472 284 l 1,45,-1
 379 0 l 1,46,-1
 -22 0 l 1,34,-1
533 635 m 1,47,-1
 559 714 l 1,48,-1
 1001 714 l 1,49,-1
 975 635 l 1,50,-1
 533 635 l 1,47,-1
1465 635 m 1,51,-1
 1491 714 l 1,52,-1
 1730 714 l 1,53,-1
 1704 635 l 1,54,-1
 1465 635 l 1,51,-1
593 437 m 1,55,-1
 619 516 l 1,56,-1
 1104 516 l 1,57,-1
 1078 437 l 1,58,-1
 593 437 l 1,55,-1
1401 437 m 1,59,-1
 1427 516 l 1,60,-1
 1666 516 l 1,61,-1
 1640 437 l 1,62,-1
 1401 437 l 1,59,-1
652 239 m 1,63,-1
 678 318 l 1,64,-1
 1043 318 l 1,65,-1
 1017 239 l 1,66,-1
 652 239 l 1,63,-1
1335 239 m 1,67,-1
 1361 318 l 1,68,-1
 1600 318 l 1,69,-1
 1574 239 l 1,70,-1
 1335 239 l 1,67,-1
712 41 m 1,71,-1
 738 120 l 1,72,-1
 977 120 l 1,73,-1
 951 41 l 1,74,-1
 712 41 l 1,71,-1
1269 41 m 1,75,-1
 1295 120 l 1,76,-1
 1534 120 l 1,77,-1
 1508 41 l 1,78,-1
 1269 41 l 1,75,-1
920 -229 m 0,79,80
 944 -229 944 -229 958.5 -209.5 c 128,-1,81
 973 -190 973 -190 977 -168 c 1,82,83
 971 -157 971 -157 959 -141 c 128,-1,84
 947 -125 947 -125 922 -125 c 0,85,86
 899 -125 899 -125 883 -139.5 c 128,-1,87
 867 -154 867 -154 867 -178 c 0,88,89
 867 -201 867 -201 882 -215 c 128,-1,90
 897 -229 897 -229 920 -229 c 0,79,80
EndSplineSet
EndChar

StartChar: uni1CC5
Encoding: 74 7365 82
Width: 744
GlyphClass: 1
Flags: W
HStem: 0 21G<90 195.667> 41 79<345 558> 239 79<411 624> 437 79<477 690> 635 79<100 304 541 754>
LayerCount: 2
Fore
SplineSet
90 0 m 1,0,-1
 304 635 l 1,1,-1
 74 635 l 1,2,-1
 100 714 l 1,3,-1
 427 714 l 1,4,-1
 189 0 l 1,5,-1
 90 0 l 1,0,-1
515 635 m 1,6,-1
 541 714 l 1,7,-1
 780 714 l 1,8,-1
 754 635 l 1,9,-1
 515 635 l 1,6,-1
451 437 m 1,10,-1
 477 516 l 1,11,-1
 716 516 l 1,12,-1
 690 437 l 1,13,-1
 451 437 l 1,10,-1
385 239 m 1,14,-1
 411 318 l 1,15,-1
 650 318 l 1,16,-1
 624 239 l 1,17,-1
 385 239 l 1,14,-1
319 41 m 1,18,-1
 345 120 l 1,19,-1
 584 120 l 1,20,-1
 558 41 l 1,21,-1
 319 41 l 1,18,-1
EndSplineSet
EndChar

StartChar: uni1CC6
Encoding: 75 7366 83
Width: 1135
GlyphClass: 1
Flags: W
HStem: 0 79<101 308> 41 79<738 951> 239 79<678 1017> 437 79<619 1078> 635 79<284 487 559 1154>
LayerCount: 2
Fore
SplineSet
-22 0 m 1,0,-1
 214 714 l 1,1,-1
 512 714 l 1,2,-1
 487 635 l 1,3,-1
 284 635 l 1,4,-1
 101 79 l 1,5,-1
 308 79 l 1,6,-1
 426 414 l 1,7,-1
 518 414 l 1,8,-1
 662 0 l 1,9,-1
 567 0 l 1,10,-1
 472 284 l 1,11,-1
 379 0 l 1,12,-1
 -22 0 l 1,0,-1
533 635 m 1,13,-1
 559 714 l 1,14,-1
 1180 714 l 1,15,-1
 1154 635 l 1,16,-1
 533 635 l 1,13,-1
593 437 m 1,17,-1
 619 516 l 1,18,-1
 1104 516 l 1,19,-1
 1078 437 l 1,20,-1
 593 437 l 1,17,-1
652 239 m 1,21,-1
 678 318 l 1,22,-1
 1043 318 l 1,23,-1
 1017 239 l 1,24,-1
 652 239 l 1,21,-1
712 41 m 1,25,-1
 738 120 l 1,26,-1
 977 120 l 1,27,-1
 951 41 l 1,28,-1
 712 41 l 1,25,-1
EndSplineSet
EndChar

StartChar: uni1CC7
Encoding: 76 7367 84
Width: 1645
GlyphClass: 1
Flags: W
HStem: 0 79<424 621> 41 79<-22 191 1258 1471> 239 79<42 255 1322 1535> 437 79<108 321 1388 1601> 635 79<172 385 607 700 910 1208 1452 1665>
LayerCount: 2
Fore
SplineSet
301 0 m 1,0,-1
 537 714 l 1,1,-1
 725 714 l 1,2,-1
 700 635 l 1,3,-1
 607 635 l 1,4,-1
 424 79 l 1,5,-1
 621 79 l 1,6,-1
 753 474 l 1,7,-1
 796 474 l 1,8,-1
 1039 135 l 1,9,-1
 1208 635 l 1,10,-1
 910 635 l 1,11,-1
 894 589 l 1,12,-1
 798 589 l 1,13,-1
 840 714 l 1,14,-1
 1331 714 l 1,15,-1
 1093 0 l 1,16,-1
 1031 0 l 1,17,-1
 797 323 l 1,18,-1
 691 0 l 1,19,-1
 301 0 l 1,0,-1
146 635 m 1,20,-1
 172 714 l 1,21,-1
 411 714 l 1,22,-1
 385 635 l 1,23,-1
 146 635 l 1,20,-1
1426 635 m 1,24,-1
 1452 714 l 1,25,-1
 1691 714 l 1,26,-1
 1665 635 l 1,27,-1
 1426 635 l 1,24,-1
82 437 m 1,28,-1
 108 516 l 1,29,-1
 347 516 l 1,30,-1
 321 437 l 1,31,-1
 82 437 l 1,28,-1
1362 437 m 1,32,-1
 1388 516 l 1,33,-1
 1627 516 l 1,34,-1
 1601 437 l 1,35,-1
 1362 437 l 1,32,-1
16 239 m 1,36,-1
 42 318 l 1,37,-1
 281 318 l 1,38,-1
 255 239 l 1,39,-1
 16 239 l 1,36,-1
1296 239 m 1,40,-1
 1322 318 l 1,41,-1
 1561 318 l 1,42,-1
 1535 239 l 1,43,-1
 1296 239 l 1,40,-1
-48 41 m 1,44,-1
 -22 120 l 1,45,-1
 217 120 l 1,46,-1
 191 41 l 1,47,-1
 -48 41 l 1,44,-1
1232 41 m 1,48,-1
 1258 120 l 1,49,-1
 1497 120 l 1,50,-1
 1471 41 l 1,51,-1
 1232 41 l 1,48,-1
EndSplineSet
EndChar

StartChar: uni25CC
Encoding: 81 9676 88
Width: 594
GlyphClass: 2
Flags: W
AnchorPoint: "+BBEENQQ3BEsEPARPBD0EPQQ+BDUA--4" 290 0 basechar 0
AnchorPoint: "+BBEENQQ3BEsEPARPBD0EPQQ+BDUA--3" 300 600 basechar 0
LayerCount: 2
Fore
SplineSet
323 514 m 0,0,1
 323 487 323 487 297 487 c 256,2,3
 271 487 271 487 271 514 c 0,4,5
 271 540 271 540 297 540 c 256,6,7
 323 540 323 540 323 514 c 0,0,1
408 496 m 0,8,9
 408 470 408 470 383 470 c 0,10,11
 355 470 355 470 355 496 c 0,12,13
 355 523 355 523 383 523 c 0,14,15
 408 523 408 523 408 496 c 0,8,9
239 496 m 0,16,17
 239 470 239 470 212 470 c 0,18,19
 186 470 186 470 186 496 c 0,20,21
 186 523 186 523 212 523 c 0,22,23
 239 523 239 523 239 496 c 0,16,17
480 448 m 0,24,25
 480 422 480 422 455 422 c 0,26,27
 428 422 428 422 428 448 c 0,28,29
 428 475 428 475 455 475 c 0,30,31
 480 475 480 475 480 448 c 0,24,25
167 448 m 0,32,33
 167 422 167 422 140 422 c 0,34,35
 114 422 114 422 114 447 c 0,36,37
 114 475 114 475 140 475 c 0,38,39
 167 475 167 475 167 448 c 0,32,33
529 376 m 0,40,41
 529 349 529 349 502 349 c 0,42,43
 476 349 476 349 476 376 c 0,44,45
 476 402 476 402 503 402 c 0,46,47
 529 402 529 402 529 376 c 0,40,41
118 376 m 0,48,49
 118 349 118 349 93 349 c 0,50,51
 65 349 65 349 65 376 c 0,52,53
 65 402 65 402 92 402 c 0,54,55
 118 402 118 402 118 376 c 0,48,49
546 291 m 256,56,57
 546 265 546 265 521 265 c 0,58,59
 494 265 494 265 494 291 c 256,60,61
 494 317 494 317 521 317 c 0,62,63
 546 317 546 317 546 291 c 256,56,57
101 291 m 256,64,65
 101 265 101 265 75 265 c 0,66,67
 48 265 48 265 48 291 c 256,68,69
 48 317 48 317 75 317 c 0,70,71
 101 317 101 317 101 291 c 256,64,65
529 206 m 0,72,73
 529 180 529 180 502 180 c 0,74,75
 476 180 476 180 476 206 c 0,76,77
 476 233 476 233 502 233 c 0,78,79
 529 233 529 233 529 206 c 0,72,73
118 206 m 0,80,81
 118 180 118 180 92 180 c 0,82,83
 65 180 65 180 65 206 c 0,84,85
 65 233 65 233 92 233 c 0,86,87
 118 233 118 233 118 206 c 0,80,81
480 133 m 0,88,89
 480 107 480 107 455 107 c 0,90,91
 428 107 428 107 428 133 c 0,92,93
 428 160 428 160 455 160 c 0,94,95
 480 160 480 160 480 133 c 0,88,89
167 133 m 0,96,97
 167 107 167 107 140 107 c 0,98,99
 114 107 114 107 114 133 c 0,100,101
 114 160 114 160 140 160 c 0,102,103
 167 160 167 160 167 133 c 0,96,97
408 85 m 0,104,105
 408 60 408 60 383 60 c 0,106,107
 355 60 355 60 355 85 c 0,108,109
 355 112 355 112 383 112 c 0,110,111
 408 112 408 112 408 85 c 0,104,105
239 87 m 0,112,113
 239 60 239 60 212 60 c 0,114,115
 186 60 186 60 186 85 c 0,116,117
 186 112 186 112 212 112 c 0,118,119
 239 112 239 112 239 87 c 0,112,113
323 69 m 0,120,121
 323 42 323 42 297 42 c 256,122,123
 271 42 271 42 271 69 c 0,124,125
 271 95 271 95 297 95 c 256,126,127
 323 95 323 95 323 69 c 0,120,121
EndSplineSet
EndChar

StartChar: NameMe.89
Encoding: 89 57344 89
Width: 1296
Flags: W
HStem: -343 79<657 824> 0 79<619.333 651 1033 1191> 635 79<101 304 505 708>
LayerCount: 2
Fore
SplineSet
534 -343 m 1,0,-1
 651 0 l 1,1,-1
 494 0 l 1,2,-1
 708 635 l 1,3,-1
 479 635 l 1,4,-1
 505 714 l 1,5,-1
 831 714 l 1,6,-1
 619.333007812 79 l 1,7,-1
 774 79 l 1,8,-1
 657 -264 l 1,9,-1
 824 -264 l 1,10,-1
 994 257 l 1,11,-1
 1091 257 l 1,12,-1
 1033 79 l 1,13,-1
 1316 79 l 1,14,-1
 1178 -342.099609375 l 1,15,-1
 1080 -342.099609375 l 1,16,-1
 1191 0 l 1,17,-1
 1007 0 l 1,18,-1
 894 -343 l 1,19,-1
 534 -343 l 1,0,-1
90 0 m 1,20,-1
 304 635 l 1,21,-1
 75 635 l 1,22,-1
 101 714 l 1,23,-1
 427 714 l 1,24,-1
 189 0 l 1,25,-1
 90 0 l 1,20,-1
EndSplineSet
EndChar
